<?xml version="1.0" encoding="UTF-8" standalone="no"?>
<!DOCTYPE svg PUBLIC "-//W3C//DTD SVG 1.1//EN"
 "http://www.w3.org/Graphics/SVG/1.1/DTD/svg11.dtd">
<!-- Generated by graphviz version 10.0.1 (20240210.2158)
 -->
<!-- Pages: 1 -->
<svg width="1742pt" height="424pt"
 viewBox="0.00 0.00 1742.25 424.00" xmlns="http://www.w3.org/2000/svg" xmlns:xlink="http://www.w3.org/1999/xlink">
<g id="graph0" class="graph" transform="scale(1 1) rotate(0) translate(4 420)">
<polygon fill="white" stroke="none" points="-4,4 -4,-420 1738.25,-420 1738.25,4 -4,4"/>
<!-- medicare.ps.buyin_cvg_count -->
<g id="node1" class="node">
<title>medicare.ps.buyin_cvg_count</title>
<g id="a_node1"><a xlink:href="../medicare.ps/buyin_cvg_count.html" xlink:title="&lt;TABLE&gt;" target="_blank">
<polygon fill="none" stroke="black" points="926,-136 637.25,-136 637.25,0 926,0 926,-136"/>
<text text-anchor="start" x="695.38" y="-114.7" font-family="Times,serif" font-weight="bold" font-size="14.00">medicare.ps.buyin_cvg_count</text>
<text text-anchor="start" x="673.25" y="-68.2" font-family="Times,serif" font-size="14.00">Number of months during a given year,</text>
<text text-anchor="start" x="681.5" y="-51.7" font-family="Times,serif" font-size="14.00">during the year when the beneficiary</text>
<text text-anchor="start" x="695.75" y="-35.2" font-family="Times,serif" font-size="14.00">premium was paid by the state.</text>
<polygon fill="none" stroke="black" points="645.25,-4 645.25,-132 918,-132 918,-4 645.25,-4"/>
</a>
</g>
</g>
<!-- cms.mbsf_ab_2011.BUYIN_MO -->
<g id="node2" class="node">
<title>cms.mbsf_ab_2011.BUYIN_MO</title>
<g id="a_node2"><a xlink:href="../cms.mbsf_ab_2011/BUYIN_MO.html" xlink:title="&lt;TABLE&gt;" target="_blank">
<polygon fill="none" stroke="black" points="233.25,-416 0,-416 0,-313 233.25,-313 233.25,-416"/>
<text text-anchor="start" x="21.75" y="-394.7" font-family="Times,serif" font-weight="bold" font-size="14.00">cms.mbsf_ab_2011.BUYIN_MO</text>
<text text-anchor="start" x="36" y="-348.2" font-family="Times,serif" font-size="14.00">State Buy&#45;In Coverage Count</text>
<polygon fill="none" stroke="black" points="8,-317 8,-412 225.25,-412 225.25,-317 8,-317"/>
</a>
</g>
</g>
<!-- cms.mbsf_ab_2011.BUYIN_MO&#45;&gt;medicare.ps.buyin_cvg_count -->
<g id="edge5" class="edge">
<title>cms.mbsf_ab_2011.BUYIN_MO&#45;&gt;medicare.ps.buyin_cvg_count</title>
<path fill="none" stroke="chocolate" stroke-width="2" d="M169.47,-312.69C215.25,-270.81 284.78,-212.13 353.62,-173 436.3,-126.01 539.66,-100.13 624.09,-85.94"/>
<polygon fill="chocolate" stroke="chocolate" stroke-width="2" points="624.65,-89.4 633.95,-84.33 623.52,-82.49 624.65,-89.4"/>
<text text-anchor="middle" x="369" y="-219.45" font-family="Times,serif" font-size="14.00">union</text>
</g>
<!-- cms.mbsf_ab_2012.BUYIN_MO -->
<g id="node3" class="node">
<title>cms.mbsf_ab_2012.BUYIN_MO</title>
<g id="a_node3"><a xlink:href="../cms.mbsf_ab_2012/BUYIN_MO.html" xlink:title="&lt;TABLE&gt;" target="_blank">
<polygon fill="none" stroke="black" points="484.25,-416 251,-416 251,-313 484.25,-313 484.25,-416"/>
<text text-anchor="start" x="272.75" y="-394.7" font-family="Times,serif" font-weight="bold" font-size="14.00">cms.mbsf_ab_2012.BUYIN_MO</text>
<text text-anchor="start" x="287" y="-348.2" font-family="Times,serif" font-size="14.00">State Buy&#45;In Coverage Count</text>
<polygon fill="none" stroke="black" points="259,-317 259,-412 476.25,-412 476.25,-317 259,-317"/>
</a>
</g>
</g>
<!-- cms.mbsf_ab_2012.BUYIN_MO&#45;&gt;medicare.ps.buyin_cvg_count -->
<g id="edge6" class="edge">
<title>cms.mbsf_ab_2012.BUYIN_MO&#45;&gt;medicare.ps.buyin_cvg_count</title>
<path fill="none" stroke="chocolate" stroke-width="2" d="M359.84,-312.82C356.3,-271.3 358.18,-213.06 387.62,-173 416.35,-133.92 527.33,-106.87 624.22,-90.17"/>
<polygon fill="chocolate" stroke="chocolate" stroke-width="2" points="624.61,-93.66 633.88,-88.54 623.44,-86.75 624.61,-93.66"/>
<text text-anchor="middle" x="403" y="-219.45" font-family="Times,serif" font-size="14.00">union</text>
</g>
<!-- cms.mbsf_ab_2013.BUYIN_MO -->
<g id="node4" class="node">
<title>cms.mbsf_ab_2013.BUYIN_MO</title>
<g id="a_node4"><a xlink:href="../cms.mbsf_ab_2013/BUYIN_MO.html" xlink:title="&lt;TABLE&gt;" target="_blank">
<polygon fill="none" stroke="black" points="972.25,-416 739,-416 739,-313 972.25,-313 972.25,-416"/>
<text text-anchor="start" x="760.75" y="-394.7" font-family="Times,serif" font-weight="bold" font-size="14.00">cms.mbsf_ab_2013.BUYIN_MO</text>
<text text-anchor="start" x="775" y="-348.2" font-family="Times,serif" font-size="14.00">State Buy&#45;In Coverage Count</text>
<polygon fill="none" stroke="black" points="747,-317 747,-412 964.25,-412 964.25,-317 747,-317"/>
</a>
</g>
</g>
<!-- cms.mbsf_ab_2013.BUYIN_MO&#45;&gt;medicare.ps.buyin_cvg_count -->
<g id="edge7" class="edge">
<title>cms.mbsf_ab_2013.BUYIN_MO&#45;&gt;medicare.ps.buyin_cvg_count</title>
<path fill="none" stroke="chocolate" stroke-width="2" d="M738.63,-348.08C614.77,-330.56 434.28,-301.14 413.62,-276 384.57,-240.63 386.01,-209.51 413.62,-173 440,-138.14 536.59,-111.63 624.19,-94.1"/>
<polygon fill="chocolate" stroke="chocolate" stroke-width="2" points="624.65,-97.58 633.79,-92.22 623.3,-90.71 624.65,-97.58"/>
<text text-anchor="middle" x="429" y="-219.45" font-family="Times,serif" font-size="14.00">union</text>
</g>
<!-- cms.mbsf_abcd_2015.BUYIN_MO -->
<g id="node6" class="node">
<title>cms.mbsf_abcd_2015.BUYIN_MO</title>
<g id="a_node6"><a xlink:href="../cms.mbsf_abcd_2015/BUYIN_MO.html" xlink:title="&lt;TABLE&gt;" target="_blank">
<polygon fill="none" stroke="black" points="699.62,-276 423.62,-276 423.62,-173 699.62,-173 699.62,-276"/>
<text text-anchor="start" x="460" y="-254.7" font-family="Times,serif" font-weight="bold" font-size="14.00">cms.mbsf_abcd_2015.BUYIN_MO</text>
<text text-anchor="start" x="459.62" y="-208.2" font-family="Times,serif" font-size="14.00">State Buy&#45;In (SBI) Coverage Months</text>
<polygon fill="none" stroke="black" points="431.62,-177 431.62,-272 691.62,-272 691.62,-177 431.62,-177"/>
</a>
</g>
</g>
<!-- cms.mbsf_ab_2013.BUYIN_MO&#45;&gt;cms.mbsf_abcd_2015.BUYIN_MO -->
<!-- cms.mbsf_abcd_2016.BUYIN_MO -->
<g id="node7" class="node">
<title>cms.mbsf_abcd_2016.BUYIN_MO</title>
<g id="a_node7"><a xlink:href="../cms.mbsf_abcd_2016/BUYIN_MO.html" xlink:title="&lt;TABLE&gt;" target="_blank">
<polygon fill="none" stroke="black" points="993.62,-276 717.62,-276 717.62,-173 993.62,-173 993.62,-276"/>
<text text-anchor="start" x="754" y="-254.7" font-family="Times,serif" font-weight="bold" font-size="14.00">cms.mbsf_abcd_2016.BUYIN_MO</text>
<text text-anchor="start" x="753.62" y="-208.2" font-family="Times,serif" font-size="14.00">State Buy&#45;In (SBI) Coverage Months</text>
<polygon fill="none" stroke="black" points="725.62,-177 725.62,-272 985.62,-272 985.62,-177 725.62,-177"/>
</a>
</g>
</g>
<!-- cms.mbsf_ab_2013.BUYIN_MO&#45;&gt;cms.mbsf_abcd_2016.BUYIN_MO -->
<!-- cms.mbsf_abcd_2017.BUYIN_MO -->
<g id="node8" class="node">
<title>cms.mbsf_abcd_2017.BUYIN_MO</title>
<g id="a_node8"><a xlink:href="../cms.mbsf_abcd_2017/BUYIN_MO.html" xlink:title="&lt;TABLE&gt;" target="_blank">
<polygon fill="none" stroke="black" points="1287.62,-276 1011.62,-276 1011.62,-173 1287.62,-173 1287.62,-276"/>
<text text-anchor="start" x="1048" y="-254.7" font-family="Times,serif" font-weight="bold" font-size="14.00">cms.mbsf_abcd_2017.BUYIN_MO</text>
<text text-anchor="start" x="1047.62" y="-208.2" font-family="Times,serif" font-size="14.00">State Buy&#45;In (SBI) Coverage Months</text>
<polygon fill="none" stroke="black" points="1019.62,-177 1019.62,-272 1279.62,-272 1279.62,-177 1019.62,-177"/>
</a>
</g>
</g>
<!-- cms.mbsf_ab_2013.BUYIN_MO&#45;&gt;cms.mbsf_abcd_2017.BUYIN_MO -->
<!-- cms.mbsf_abcd_2018.BUYIN_MO -->
<g id="node9" class="node">
<title>cms.mbsf_abcd_2018.BUYIN_MO</title>
<g id="a_node9"><a xlink:href="../cms.mbsf_abcd_2018/BUYIN_MO.html" xlink:title="&lt;TABLE&gt;" target="_blank">
<polygon fill="none" stroke="black" points="1581.62,-276 1305.62,-276 1305.62,-173 1581.62,-173 1581.62,-276"/>
<text text-anchor="start" x="1342" y="-254.7" font-family="Times,serif" font-weight="bold" font-size="14.00">cms.mbsf_abcd_2018.BUYIN_MO</text>
<text text-anchor="start" x="1341.62" y="-208.2" font-family="Times,serif" font-size="14.00">State Buy&#45;In (SBI) Coverage Months</text>
<polygon fill="none" stroke="black" points="1313.62,-177 1313.62,-272 1573.62,-272 1573.62,-177 1313.62,-177"/>
</a>
</g>
</g>
<!-- cms.mbsf_ab_2013.BUYIN_MO&#45;&gt;cms.mbsf_abcd_2018.BUYIN_MO -->
<!-- cms.mbsf_ab_2014.BUYIN_MO -->
<g id="node5" class="node">
<title>cms.mbsf_ab_2014.BUYIN_MO</title>
<g id="a_node5"><a xlink:href="../cms.mbsf_ab_2014/BUYIN_MO.html" xlink:title="&lt;TABLE&gt;" target="_blank">
<polygon fill="none" stroke="black" points="1734.25,-416 1501,-416 1501,-313 1734.25,-313 1734.25,-416"/>
<text text-anchor="start" x="1522.75" y="-394.7" font-family="Times,serif" font-weight="bold" font-size="14.00">cms.mbsf_ab_2014.BUYIN_MO</text>
<text text-anchor="start" x="1537" y="-348.2" font-family="Times,serif" font-size="14.00">State Buy&#45;In Coverage Count</text>
<polygon fill="none" stroke="black" points="1509,-317 1509,-412 1726.25,-412 1726.25,-317 1509,-317"/>
</a>
</g>
</g>
<!-- cms.mbsf_ab_2014.BUYIN_MO&#45;&gt;medicare.ps.buyin_cvg_count -->
<g id="edge8" class="edge">
<title>cms.mbsf_ab_2014.BUYIN_MO&#45;&gt;medicare.ps.buyin_cvg_count</title>
<path fill="none" stroke="chocolate" stroke-width="2" d="M1625.73,-312.81C1629.52,-269.54 1626.88,-208.79 1590.62,-173 1545.12,-128.08 1161.11,-94.78 938.91,-79.06"/>
<polygon fill="chocolate" stroke="chocolate" stroke-width="2" points="939.4,-75.58 929.18,-78.37 938.91,-82.57 939.4,-75.58"/>
<text text-anchor="middle" x="1642" y="-219.45" font-family="Times,serif" font-size="14.00">union</text>
</g>
<!-- cms.mbsf_abcd_2015.BUYIN_MO&#45;&gt;medicare.ps.buyin_cvg_count -->
<g id="edge9" class="edge">
<title>cms.mbsf_abcd_2015.BUYIN_MO&#45;&gt;medicare.ps.buyin_cvg_count</title>
<path fill="none" stroke="chocolate" stroke-width="2" d="M633.97,-172.7C647.14,-163.45 661.13,-153.62 675.05,-143.84"/>
<polygon fill="chocolate" stroke="chocolate" stroke-width="2" points="677.02,-146.74 683.19,-138.13 672.99,-141.01 677.02,-146.74"/>
<text text-anchor="middle" x="676" y="-149.45" font-family="Times,serif" font-size="14.00">union</text>
</g>
<!-- cms.mbsf_abcd_2016.BUYIN_MO&#45;&gt;medicare.ps.buyin_cvg_count -->
<g id="edge10" class="edge">
<title>cms.mbsf_abcd_2016.BUYIN_MO&#45;&gt;medicare.ps.buyin_cvg_count</title>
<path fill="none" stroke="chocolate" stroke-width="2" d="M831.39,-172.91C827.54,-164.86 823.48,-156.38 819.4,-147.86"/>
<polygon fill="chocolate" stroke="chocolate" stroke-width="2" points="822.63,-146.51 815.16,-139.01 816.32,-149.54 822.63,-146.51"/>
<text text-anchor="middle" x="838" y="-149.45" font-family="Times,serif" font-size="14.00">union</text>
</g>
<!-- cms.mbsf_abcd_2017.BUYIN_MO&#45;&gt;medicare.ps.buyin_cvg_count -->
<g id="edge11" class="edge">
<title>cms.mbsf_abcd_2017.BUYIN_MO&#45;&gt;medicare.ps.buyin_cvg_count</title>
<path fill="none" stroke="chocolate" stroke-width="2" d="M1028.36,-172.59C999.52,-160.48 968.34,-147.39 938.17,-134.73"/>
<polygon fill="chocolate" stroke="chocolate" stroke-width="2" points="939.59,-131.52 929.01,-130.88 936.88,-137.98 939.59,-131.52"/>
<text text-anchor="middle" x="1001" y="-149.45" font-family="Times,serif" font-size="14.00">union</text>
</g>
<!-- cms.mbsf_abcd_2018.BUYIN_MO&#45;&gt;medicare.ps.buyin_cvg_count -->
<g id="edge12" class="edge">
<title>cms.mbsf_abcd_2018.BUYIN_MO&#45;&gt;medicare.ps.buyin_cvg_count</title>
<path fill="none" stroke="chocolate" stroke-width="2" d="M1305.29,-175.41C1302.38,-174.58 1299.49,-173.78 1296.62,-173 1178,-140.8 1041.57,-113.68 938.94,-95.22"/>
<polygon fill="chocolate" stroke="chocolate" stroke-width="2" points="939.71,-91.8 929.25,-93.49 938.48,-98.69 939.71,-91.8"/>
<text text-anchor="middle" x="1240" y="-149.45" font-family="Times,serif" font-size="14.00">union</text>
</g>
</g>
</svg>
