<?xml version="1.0" encoding="UTF-8" standalone="no"?>
<!DOCTYPE svg PUBLIC "-//W3C//DTD SVG 1.1//EN"
 "http://www.w3.org/Graphics/SVG/1.1/DTD/svg11.dtd">
<!-- Generated by graphviz version 10.0.1 (20240210.2158)
 -->
<!-- Pages: 1 -->
<svg width="386pt" height="723pt"
 viewBox="0.00 0.00 386.00 723.00" xmlns="http://www.w3.org/2000/svg" xmlns:xlink="http://www.w3.org/1999/xlink">
<g id="graph0" class="graph" transform="scale(1 1) rotate(0) translate(4 719)">
<polygon fill="white" stroke="none" points="-4,4 -4,-719 382,-719 382,4 -4,4"/>
<!-- medicare._enrollments.buyin_indicators -->
<g id="node1" class="node">
<title>medicare._enrollments.buyin_indicators</title>
<g id="a_node1"><a xlink:href="../medicare._enrollments/buyin_indicators.html" xlink:title="&lt;TABLE&gt;" target="_blank">
<polygon fill="none" stroke="black" points="279.62,-59 18.88,-59 18.88,0 279.62,0 279.62,-59"/>
<text text-anchor="start" x="31.88" y="-37.7" font-family="Times,serif" font-weight="bold" font-size="14.00">medicare._enrollments.buyin_indicators</text>
<polygon fill="none" stroke="black" points="29.88,-7 29.88,-29.5 268.62,-29.5 268.62,-7 29.88,-7"/>
<text text-anchor="start" x="32.88" y="-13.2" font-family="Times,serif" font-size="14.00">MAX(buyin_indicators)</text>
<polygon fill="none" stroke="black" points="26.88,-4 26.88,-55 271.62,-55 271.62,-4 26.88,-4"/>
</a>
</g>
</g>
<!-- medicare._ps.buyin_indicators -->
<g id="node2" class="node">
<title>medicare._ps.buyin_indicators</title>
<g id="a_node2"><a xlink:href="../medicare._ps/buyin_indicators.html" xlink:title="&lt;TABLE&gt;" target="_blank">
<polygon fill="none" stroke="black" points="298.5,-314.5 0,-314.5 0,-96 298.5,-96 298.5,-314.5"/>
<text text-anchor="start" x="60" y="-293.2" font-family="Times,serif" font-weight="bold" font-size="14.00">medicare._ps.buyin_indicators</text>
<text text-anchor="start" x="44.25" y="-246.7" font-family="Times,serif" font-size="14.00">Array of indicators if the beneficiary’s</text>
<text text-anchor="start" x="43.5" y="-230.2" font-family="Times,serif" font-size="14.00">state of residence paid his/her monthly</text>
<text text-anchor="start" x="36" y="-213.7" font-family="Times,serif" font-size="14.00">premium for Part B coverage (and Part A</text>
<text text-anchor="start" x="42" y="-197.2" font-family="Times,serif" font-size="14.00">if necessary). State Medicaid programs</text>
<text text-anchor="start" x="39" y="-180.7" font-family="Times,serif" font-size="14.00">can pay those premiums for certain dual</text>
<text text-anchor="start" x="46.5" y="-164.2" font-family="Times,serif" font-size="14.00">eligibles; this action is called “buying</text>
<text text-anchor="start" x="47.25" y="-147.7" font-family="Times,serif" font-size="14.00">in” and so this variable is the “buy&#45;in</text>
<text text-anchor="start" x="131.62" y="-131.2" font-family="Times,serif" font-size="14.00">code.”</text>
<polygon fill="none" stroke="black" points="8,-100 8,-310.5 290.5,-310.5 290.5,-100 8,-100"/>
</a>
</g>
</g>
<!-- medicare._ps.buyin_indicators&#45;&gt;medicare._enrollments.buyin_indicators -->
<g id="edge1" class="edge">
<title>medicare._ps.buyin_indicators&#45;&gt;medicare._enrollments.buyin_indicators</title>
<path fill="none" stroke="blue" stroke-width="5" d="M149.25,-95.69C149.25,-88.62 149.25,-81.76 149.25,-75.3"/>
<polygon fill="blue" stroke="blue" stroke-width="5" points="153.63,-75.54 149.25,-65.54 144.88,-75.54 153.63,-75.54"/>
<text text-anchor="middle" x="263.62" y="-72.45" font-family="Times,serif" font-size="14.00">	 &#160;Aggregated On bene_id, year, state</text>
</g>
<!-- medicare.ps.buyin_indicators -->
<g id="node3" class="node">
<title>medicare.ps.buyin_indicators</title>
<g id="a_node3"><a xlink:href="../medicare.ps/buyin_indicators.html" xlink:title="&lt;TABLE&gt;" target="_blank">
<polygon fill="none" stroke="black" points="298.5,-570 0,-570 0,-351.5 298.5,-351.5 298.5,-570"/>
<text text-anchor="start" x="63.38" y="-548.7" font-family="Times,serif" font-weight="bold" font-size="14.00">medicare.ps.buyin_indicators</text>
<text text-anchor="start" x="44.25" y="-502.2" font-family="Times,serif" font-size="14.00">Array of indicators if the beneficiary’s</text>
<text text-anchor="start" x="43.5" y="-485.7" font-family="Times,serif" font-size="14.00">state of residence paid his/her monthly</text>
<text text-anchor="start" x="36" y="-469.2" font-family="Times,serif" font-size="14.00">premium for Part B coverage (and Part A</text>
<text text-anchor="start" x="42" y="-452.7" font-family="Times,serif" font-size="14.00">if necessary). State Medicaid programs</text>
<text text-anchor="start" x="39" y="-436.2" font-family="Times,serif" font-size="14.00">can pay those premiums for certain dual</text>
<text text-anchor="start" x="46.5" y="-419.7" font-family="Times,serif" font-size="14.00">eligibles; this action is called “buying</text>
<text text-anchor="start" x="47.25" y="-403.2" font-family="Times,serif" font-size="14.00">in” and so this variable is the “buy&#45;in</text>
<text text-anchor="start" x="131.62" y="-386.7" font-family="Times,serif" font-size="14.00">code.”</text>
<polygon fill="none" stroke="black" points="8,-355.5 8,-566 290.5,-566 290.5,-355.5 8,-355.5"/>
</a>
</g>
</g>
<!-- medicare.ps.buyin_indicators&#45;&gt;medicare._ps.buyin_indicators -->
<g id="edge2" class="edge">
<title>medicare.ps.buyin_indicators&#45;&gt;medicare._ps.buyin_indicators</title>
<path fill="none" stroke="black" d="M149.25,-351.14C149.25,-342.83 149.25,-334.4 149.25,-326.02"/>
<polygon fill="black" stroke="black" points="152.75,-326.15 149.25,-316.15 145.75,-326.15 152.75,-326.15"/>
<text text-anchor="middle" x="168.75" y="-327.95" font-family="Times,serif" font-size="14.00">Copied</text>
</g>
<!-- medicare.ps.buyin_indicators_parent -->
<g id="node4" class="node">
<title>medicare.ps.buyin_indicators_parent</title>
<g id="a_node4"><a xlink:href="../medicare.ps/buyin_indicators.html" xlink:title="96 incoming links (columns)" target="_blank">
<path fill="yellow" stroke="black" d="M257.25,-705.18C257.25,-710.6 208.84,-715 149.25,-715 89.66,-715 41.25,-710.6 41.25,-705.18 41.25,-705.18 41.25,-616.82 41.25,-616.82 41.25,-611.4 89.66,-607 149.25,-607 208.84,-607 257.25,-611.4 257.25,-616.82 257.25,-616.82 257.25,-705.18 257.25,-705.18"/>
<path fill="none" stroke="black" d="M257.25,-705.18C257.25,-699.76 208.84,-695.36 149.25,-695.36 89.66,-695.36 41.25,-699.76 41.25,-705.18"/>
<text text-anchor="middle" x="149.25" y="-655.95" font-family="Times,serif" font-size="14.00">96 incoming links (columns)</text>
</a>
</g>
</g>
<!-- medicare.ps.buyin_indicators_parent&#45;&gt;medicare.ps.buyin_indicators -->
<g id="edge3" class="edge">
<title>medicare.ps.buyin_indicators_parent&#45;&gt;medicare.ps.buyin_indicators</title>
<path fill="none" stroke="goldenrod" stroke-width="9.58" d="M149.25,-606.61C149.25,-600.49 149.25,-594.07 149.25,-587.49"/>
<polygon fill="goldenrod" stroke="goldenrod" stroke-width="9.58" points="157.64,-587.75 149.25,-577.75 140.86,-587.75 157.64,-587.75"/>
</g>
</g>
</svg>
