<?xml version="1.0" encoding="UTF-8" standalone="no"?>
<!DOCTYPE svg PUBLIC "-//W3C//DTD SVG 1.1//EN"
 "http://www.w3.org/Graphics/SVG/1.1/DTD/svg11.dtd">
<!-- Generated by graphviz version 10.0.1 (20240210.2158)
 -->
<!-- Pages: 1 -->
<svg width="797pt" height="324pt"
 viewBox="0.00 0.00 796.50 324.00" xmlns="http://www.w3.org/2000/svg" xmlns:xlink="http://www.w3.org/1999/xlink">
<g id="graph0" class="graph" transform="scale(1 1) rotate(0) translate(4 320)">
<polygon fill="white" stroke="none" points="-4,4 -4,-320 792.5,-320 792.5,4 -4,4"/>
<!-- medicare.qc_enrollments.consistent_orec -->
<g id="node1" class="node">
<title>medicare.qc_enrollments.consistent_orec</title>
<g id="a_node1"><a xlink:href="../medicare.qc_enrollments/consistent_orec.html" xlink:title="&lt;TABLE&gt;" target="_blank">
<polygon fill="none" stroke="black" points="526.88,-36 261.62,-36 261.62,0 526.88,0 526.88,-36"/>
<text text-anchor="start" x="274.62" y="-13.95" font-family="Times,serif" font-weight="bold" font-size="14.00">medicare.qc_enrollments.consistent_orec</text>
<polygon fill="none" stroke="black" points="269.62,-4.75 269.62,-31.25 518.88,-31.25 518.88,-4.75 269.62,-4.75"/>
</a>
</g>
</g>
<!-- medicare.qc_enrl_bene.consistent_orec -->
<g id="node2" class="node">
<title>medicare.qc_enrl_bene.consistent_orec</title>
<g id="a_node2"><a xlink:href="../medicare.qc_enrl_bene/consistent_orec.html" xlink:title="&lt;TABLE&gt;" target="_blank">
<polygon fill="none" stroke="black" points="788.5,-316 0,-316 0,-73 788.5,-73 788.5,-316"/>
<text text-anchor="start" x="280.62" y="-294.7" font-family="Times,serif" font-weight="bold" font-size="14.00">medicare.qc_enrl_bene.consistent_orec</text>
<text text-anchor="start" x="46.5" y="-248.2" font-family="Times,serif" font-size="14.00">QC flag for OREC (Original Reason for</text>
<text text-anchor="start" x="59.62" y="-231.7" font-family="Times,serif" font-size="14.00">Entitlement) consistency across the</text>
<text text-anchor="start" x="36" y="-215.2" font-family="Times,serif" font-size="14.00">beneficiary&#39;s records. AMBIGUOUS means</text>
<text text-anchor="start" x="53.25" y="-198.7" font-family="Times,serif" font-size="14.00">OREC changed over the years, which</text>
<text text-anchor="start" x="68.25" y="-182.2" font-family="Times,serif" font-size="14.00">should not happen for a genuine</text>
<text text-anchor="start" x="56.62" y="-165.7" font-family="Times,serif" font-size="14.00">&quot;original&quot; code and indicates a data&#45;</text>
<text text-anchor="start" x="51" y="-149.2" font-family="Times,serif" font-size="14.00">quality issue. Mirrors consistent_dob /</text>
<text text-anchor="start" x="113.62" y="-132.7" font-family="Times,serif" font-size="14.00">consistent_dod.</text>
<polygon fill="none" stroke="black" points="11,-80 11,-102.5 777.5,-102.5 777.5,-80 11,-80"/>
<text text-anchor="start" x="14" y="-86.2" font-family="Times,serif" font-size="14.00">(CASE &#160;WHEN orec IS NULL THEN &#39;MISSING&#39; &#160;WHEN orec_latest IS NOT NULL THEN &#39;AMBIGUOUS&#39; &#160;ELSE &#39;CONSISTENT&#39;END)</text>
<polygon fill="none" stroke="black" points="8,-77 8,-312 780.5,-312 780.5,-77 8,-77"/>
</a>
</g>
</g>
<!-- medicare.qc_enrl_bene.consistent_orec&#45;&gt;medicare.qc_enrollments.consistent_orec -->
<g id="edge1" class="edge">
<title>medicare.qc_enrl_bene.consistent_orec&#45;&gt;medicare.qc_enrollments.consistent_orec</title>
<path fill="none" stroke="black" d="M394.25,-72.78C394.25,-63.51 394.25,-54.83 394.25,-47.27"/>
<polygon fill="black" stroke="black" points="397.75,-47.54 394.25,-37.54 390.75,-47.54 397.75,-47.54"/>
<text text-anchor="middle" x="432.88" y="-49.45" font-family="Times,serif" font-size="14.00"> &#160;Transformed</text>
</g>
</g>
</svg>
