<?xml version="1.0" encoding="UTF-8" standalone="no"?>
<!DOCTYPE svg PUBLIC "-//W3C//DTD SVG 1.1//EN"
 "http://www.w3.org/Graphics/SVG/1.1/DTD/svg11.dtd">
<!-- Generated by graphviz version 10.0.1 (20240210.2158)
 -->
<!-- Pages: 1 -->
<svg width="444pt" height="767pt"
 viewBox="0.00 0.00 443.88 767.00" xmlns="http://www.w3.org/2000/svg" xmlns:xlink="http://www.w3.org/1999/xlink">
<g id="graph0" class="graph" transform="scale(1 1) rotate(0) translate(4 763)">
<polygon fill="white" stroke="none" points="-4,4 -4,-763 439.88,-763 439.88,4 -4,4"/>
<!-- medicare.qc_enrl_bene.curec_latest -->
<g id="node1" class="node">
<title>medicare.qc_enrl_bene.curec_latest</title>
<g id="a_node1"><a xlink:href="../medicare.qc_enrl_bene/curec_latest.html" xlink:title="&lt;TABLE&gt;" target="_blank">
<polygon fill="none" stroke="black" points="414.25,-276 0,-276 0,0 414.25,0 414.25,-276"/>
<text text-anchor="start" x="103.25" y="-254.7" font-family="Times,serif" font-weight="bold" font-size="14.00">medicare.qc_enrl_bene.curec_latest</text>
<text text-anchor="start" x="48.38" y="-208.2" font-family="Times,serif" font-size="14.00">Non&#45;null only when duplicate source</text>
<text text-anchor="start" x="48" y="-191.7" font-family="Times,serif" font-size="14.00">records disagree on CUREC within a</text>
<text text-anchor="start" x="52.88" y="-175.2" font-family="Times,serif" font-size="14.00">(bene_id, year, state) group. Drives</text>
<text text-anchor="start" x="49.12" y="-158.7" font-family="Times,serif" font-size="14.00">consistent_curec. Defensive / future&#45;</text>
<text text-anchor="start" x="54" y="-142.2" font-family="Times,serif" font-size="14.00">proofing: this multiplicity does not</text>
<text text-anchor="start" x="51" y="-125.7" font-family="Times,serif" font-size="14.00">occur in the synthetic dataset (every</text>
<text text-anchor="start" x="46.12" y="-109.2" font-family="Times,serif" font-size="14.00">group is a single row) but can arise in</text>
<text text-anchor="start" x="41.25" y="-92.7" font-family="Times,serif" font-size="14.00">real Medicare data from overlapping or</text>
<text text-anchor="start" x="36" y="-76.2" font-family="Times,serif" font-size="14.00">reissued MBSF files, where MAX(curec)</text>
<text text-anchor="start" x="39" y="-59.7" font-family="Times,serif" font-size="14.00">would otherwise silently pick one value.</text>
<polygon fill="none" stroke="black" points="11,-7 11,-29.5 403.25,-29.5 403.25,-7 11,-7"/>
<text text-anchor="start" x="14" y="-13.2" font-family="Times,serif" font-size="14.00">CASE &#160;WHEN MIN(curec) &lt;&gt; MAX(curec) THEN MAX(curec)END</text>
<polygon fill="none" stroke="black" points="8,-4 8,-272 406.25,-272 406.25,-4 8,-4"/>
</a>
</g>
</g>
<!-- medicare.enrollments.curec -->
<g id="node2" class="node">
<title>medicare.enrollments.curec</title>
<g id="a_node2"><a xlink:href="../medicare.enrollments/curec.html" xlink:title="&lt;TABLE&gt;" target="_blank">
<polygon fill="none" stroke="black" points="301.12,-372 113.12,-372 113.12,-313 301.12,-313 301.12,-372"/>
<text text-anchor="start" x="126.12" y="-350.7" font-family="Times,serif" font-weight="bold" font-size="14.00">medicare.enrollments.curec</text>
<polygon fill="none" stroke="black" points="124.12,-320 124.12,-342.5 290.12,-342.5 290.12,-320 124.12,-320"/>
<text text-anchor="start" x="127.12" y="-326.2" font-family="Times,serif" font-size="14.00">MAX(curec)</text>
<polygon fill="none" stroke="black" points="121.12,-317 121.12,-368 293.12,-368 293.12,-317 121.12,-317"/>
</a>
</g>
</g>
<!-- medicare.enrollments.curec&#45;&gt;medicare.qc_enrl_bene.curec_latest -->
<g id="edge1" class="edge">
<title>medicare.enrollments.curec&#45;&gt;medicare.qc_enrl_bene.curec_latest</title>
<path fill="none" stroke="black" d="M207.12,-312.92C207.12,-305.39 207.12,-296.74 207.12,-287.4"/>
<polygon fill="black" stroke="black" points="210.63,-287.65 207.13,-277.65 203.63,-287.65 210.63,-287.65"/>
<text text-anchor="middle" x="253.25" y="-289.45" font-family="Times,serif" font-size="14.00">	join natural</text>
</g>
<!-- medicare._enrollments.curec -->
<g id="node3" class="node">
<title>medicare._enrollments.curec</title>
<g id="a_node3"><a xlink:href="../medicare._enrollments/curec.html" xlink:title="&lt;TABLE&gt;" target="_blank">
<polygon fill="none" stroke="black" points="304.5,-468 109.75,-468 109.75,-409 304.5,-409 304.5,-468"/>
<text text-anchor="start" x="122.75" y="-446.7" font-family="Times,serif" font-weight="bold" font-size="14.00">medicare._enrollments.curec</text>
<polygon fill="none" stroke="black" points="120.75,-416 120.75,-438.5 293.5,-438.5 293.5,-416 120.75,-416"/>
<text text-anchor="start" x="123.75" y="-422.2" font-family="Times,serif" font-size="14.00">MAX(curec)</text>
<polygon fill="none" stroke="black" points="117.75,-413 117.75,-464 296.5,-464 296.5,-413 117.75,-413"/>
</a>
</g>
</g>
<!-- medicare._enrollments.curec&#45;&gt;medicare.enrollments.curec -->
<g id="edge2" class="edge">
<title>medicare._enrollments.curec&#45;&gt;medicare.enrollments.curec</title>
<path fill="none" stroke="black" d="M207.12,-408.53C207.12,-400.68 207.12,-392.05 207.12,-383.7"/>
<polygon fill="black" stroke="black" points="210.63,-383.73 207.13,-373.73 203.63,-383.73 210.63,-383.73"/>
<text text-anchor="middle" x="226.62" y="-385.45" font-family="Times,serif" font-size="14.00">Copied</text>
</g>
<!-- medicare._ps.curec -->
<g id="node4" class="node">
<title>medicare._ps.curec</title>
<g id="a_node4"><a xlink:href="../medicare._ps/curec.html" xlink:title="&lt;TABLE&gt;" target="_blank">
<polygon fill="none" stroke="black" points="276.38,-541 137.88,-541 137.88,-505 276.38,-505 276.38,-541"/>
<text text-anchor="start" x="150.88" y="-518.95" font-family="Times,serif" font-weight="bold" font-size="14.00">medicare._ps.curec</text>
<polygon fill="none" stroke="black" points="145.88,-509.75 145.88,-536.25 268.38,-536.25 268.38,-509.75 145.88,-509.75"/>
</a>
</g>
</g>
<!-- medicare._ps.curec&#45;&gt;medicare._enrollments.curec -->
<g id="edge3" class="edge">
<title>medicare._ps.curec&#45;&gt;medicare._enrollments.curec</title>
<path fill="none" stroke="blue" stroke-width="5" d="M207.12,-504.5C207.12,-498.52 207.12,-491.51 207.12,-484.37"/>
<polygon fill="blue" stroke="blue" stroke-width="5" points="211.5,-484.57 207.13,-474.57 202.75,-484.57 211.5,-484.57"/>
<text text-anchor="middle" x="321.5" y="-481.45" font-family="Times,serif" font-size="14.00">	 &#160;Aggregated On bene_id, year, state</text>
</g>
<!-- medicare.ps.curec -->
<g id="node5" class="node">
<title>medicare.ps.curec</title>
<g id="a_node5"><a xlink:href="../medicare.ps/curec.html" xlink:title="&lt;TABLE&gt;" target="_blank">
<polygon fill="none" stroke="black" points="273,-614 141.25,-614 141.25,-578 273,-578 273,-614"/>
<text text-anchor="start" x="154.25" y="-591.95" font-family="Times,serif" font-weight="bold" font-size="14.00">medicare.ps.curec</text>
<polygon fill="none" stroke="black" points="149.25,-582.75 149.25,-609.25 265,-609.25 265,-582.75 149.25,-582.75"/>
</a>
</g>
</g>
<!-- medicare.ps.curec&#45;&gt;medicare._ps.curec -->
<g id="edge4" class="edge">
<title>medicare.ps.curec&#45;&gt;medicare._ps.curec</title>
<path fill="none" stroke="black" d="M207.12,-577.81C207.12,-570.23 207.12,-561.1 207.12,-552.54"/>
<polygon fill="black" stroke="black" points="210.63,-552.54 207.13,-542.54 203.63,-552.54 210.63,-552.54"/>
<text text-anchor="middle" x="226.62" y="-554.45" font-family="Times,serif" font-size="14.00">Copied</text>
</g>
<!-- medicare.ps.curec_parent -->
<g id="node6" class="node">
<title>medicare.ps.curec_parent</title>
<g id="a_node6"><a xlink:href="../medicare.ps/curec.html" xlink:title="8 incoming links (columns)" target="_blank">
<path fill="yellow" stroke="black" d="M315.12,-749.18C315.12,-754.6 266.72,-759 207.12,-759 147.53,-759 99.12,-754.6 99.12,-749.18 99.12,-749.18 99.12,-660.82 99.12,-660.82 99.12,-655.4 147.53,-651 207.12,-651 266.72,-651 315.12,-655.4 315.12,-660.82 315.12,-660.82 315.12,-749.18 315.12,-749.18"/>
<path fill="none" stroke="black" d="M315.12,-749.18C315.12,-743.76 266.72,-739.36 207.12,-739.36 147.53,-739.36 99.12,-743.76 99.12,-749.18"/>
<text text-anchor="middle" x="207.12" y="-699.95" font-family="Times,serif" font-size="14.00">8 incoming links (columns)</text>
</a>
</g>
</g>
<!-- medicare.ps.curec_parent&#45;&gt;medicare.ps.curec -->
<g id="edge5" class="edge">
<title>medicare.ps.curec_parent&#45;&gt;medicare.ps.curec</title>
<path fill="none" stroke="goldenrod" stroke-width="6" d="M207.12,-650.5C207.12,-643.71 207.12,-636.92 207.12,-630.57"/>
<polygon fill="goldenrod" stroke="goldenrod" stroke-width="6" points="212.38,-630.65 207.13,-620.65 201.88,-630.65 212.38,-630.65"/>
</g>
</g>
</svg>
