<?xml version="1.0" encoding="UTF-8" standalone="no"?>
<!DOCTYPE svg PUBLIC "-//W3C//DTD SVG 1.1//EN"
 "http://www.w3.org/Graphics/SVG/1.1/DTD/svg11.dtd">
<!-- Generated by graphviz version 10.0.1 (20240210.2158)
 -->
<!-- Pages: 1 -->
<svg width="1558pt" height="324pt"
 viewBox="0.00 0.00 1558.00 324.00" xmlns="http://www.w3.org/2000/svg" xmlns:xlink="http://www.w3.org/1999/xlink">
<g id="graph0" class="graph" transform="scale(1 1) rotate(0) translate(4 320)">
<polygon fill="white" stroke="none" points="-4,4 -4,-320 1554,-320 1554,4 -4,4"/>
<!-- medicare.ip.diag6 -->
<g id="node1" class="node">
<title>medicare.ip.diag6</title>
<g id="a_node1"><a xlink:href="../medicare.ip/diag6.html" xlink:title="&lt;TABLE&gt;" target="_blank">
<polygon fill="none" stroke="black" points="718.62,-36 588.38,-36 588.38,0 718.62,0 718.62,-36"/>
<text text-anchor="start" x="601.38" y="-13.95" font-family="Times,serif" font-weight="bold" font-size="14.00">medicare.ip.diag6</text>
<polygon fill="none" stroke="black" points="596.38,-4.75 596.38,-31.25 710.62,-31.25 710.62,-4.75 596.38,-4.75"/>
</a>
</g>
</g>
<!-- cms.medpar_2011.DGNSCD6 -->
<g id="node2" class="node">
<title>cms.medpar_2011.DGNSCD6</title>
<g id="a_node2"><a xlink:href="../cms.medpar_2011/DGNSCD6.html" xlink:title="&lt;TABLE&gt;" target="_blank">
<polygon fill="none" stroke="black" points="237,-316 0,-316 0,-213 237,-213 237,-316"/>
<text text-anchor="start" x="31.12" y="-294.7" font-family="Times,serif" font-weight="bold" font-size="14.00">cms.medpar_2011.DGNSCD6</text>
<text text-anchor="start" x="36" y="-248.2" font-family="Times,serif" font-size="14.00">ICD&#45;9&#45;CM Diagnosis code VI</text>
<polygon fill="none" stroke="black" points="8,-217 8,-312 229,-312 229,-217 8,-217"/>
</a>
</g>
</g>
<!-- cms.medpar_2011.DGNSCD6&#45;&gt;medicare.ip.diag6 -->
<g id="edge5" class="edge">
<title>cms.medpar_2011.DGNSCD6&#45;&gt;medicare.ip.diag6</title>
<path fill="none" stroke="chocolate" stroke-width="2" d="M171.06,-212.87C217.45,-170.53 288.55,-111.09 359.5,-73 426.62,-36.96 513.45,-24.5 575.3,-20.42"/>
<polygon fill="chocolate" stroke="chocolate" stroke-width="2" points="575.3,-23.93 585.08,-19.85 574.9,-16.94 575.3,-23.93"/>
<text text-anchor="middle" x="374.88" y="-119.45" font-family="Times,serif" font-size="14.00">union</text>
</g>
<!-- cms.medpar_2012.DGNSCD6 -->
<g id="node3" class="node">
<title>cms.medpar_2012.DGNSCD6</title>
<g id="a_node3"><a xlink:href="../cms.medpar_2012/DGNSCD6.html" xlink:title="&lt;TABLE&gt;" target="_blank">
<polygon fill="none" stroke="black" points="492,-316 255,-316 255,-213 492,-213 492,-316"/>
<text text-anchor="start" x="286.12" y="-294.7" font-family="Times,serif" font-weight="bold" font-size="14.00">cms.medpar_2012.DGNSCD6</text>
<text text-anchor="start" x="291" y="-248.2" font-family="Times,serif" font-size="14.00">ICD&#45;9&#45;CM Diagnosis code VI</text>
<polygon fill="none" stroke="black" points="263,-217 263,-312 484,-312 484,-217 263,-217"/>
</a>
</g>
</g>
<!-- cms.medpar_2012.DGNSCD6&#45;&gt;medicare.ip.diag6 -->
<g id="edge6" class="edge">
<title>cms.medpar_2012.DGNSCD6&#45;&gt;medicare.ip.diag6</title>
<path fill="none" stroke="chocolate" stroke-width="2" d="M365.23,-212.84C361.33,-171.05 362.94,-112.43 393.5,-73 415.49,-44.63 506.92,-30.79 575.19,-24.31"/>
<polygon fill="chocolate" stroke="chocolate" stroke-width="2" points="575.41,-27.8 585.05,-23.42 574.78,-20.83 575.41,-27.8"/>
<text text-anchor="middle" x="408.88" y="-119.45" font-family="Times,serif" font-size="14.00">union</text>
</g>
<!-- cms.medpar_2013.DGNSCD6 -->
<g id="node4" class="node">
<title>cms.medpar_2013.DGNSCD6</title>
<g id="a_node4"><a xlink:href="../cms.medpar_2013/DGNSCD6.html" xlink:title="&lt;TABLE&gt;" target="_blank">
<polygon fill="none" stroke="black" points="922,-316 685,-316 685,-213 922,-213 922,-316"/>
<text text-anchor="start" x="716.12" y="-294.7" font-family="Times,serif" font-weight="bold" font-size="14.00">cms.medpar_2013.DGNSCD6</text>
<text text-anchor="start" x="721" y="-248.2" font-family="Times,serif" font-size="14.00">ICD&#45;9&#45;CM Diagnosis code VI</text>
<polygon fill="none" stroke="black" points="693,-217 693,-312 914,-312 914,-217 693,-217"/>
</a>
</g>
</g>
<!-- cms.medpar_2013.DGNSCD6&#45;&gt;medicare.ip.diag6 -->
<g id="edge7" class="edge">
<title>cms.medpar_2013.DGNSCD6&#45;&gt;medicare.ip.diag6</title>
<path fill="none" stroke="chocolate" stroke-width="2" d="M684.66,-244.04C578.22,-225.41 436.32,-197.08 419.5,-176 390.95,-140.21 391,-108.82 419.5,-73 438.86,-48.67 515.08,-34.36 575.34,-26.65"/>
<polygon fill="chocolate" stroke="chocolate" stroke-width="2" points="575.43,-30.17 584.93,-25.48 574.57,-23.22 575.43,-30.17"/>
<text text-anchor="middle" x="434.88" y="-119.45" font-family="Times,serif" font-size="14.00">union</text>
</g>
<!-- cms.medpar_2015.DGNSCD6 -->
<g id="node6" class="node">
<title>cms.medpar_2015.DGNSCD6</title>
<g id="a_node6"><a xlink:href="../cms.medpar_2015/DGNSCD6.html" xlink:title="&lt;TABLE&gt;" target="_blank">
<polygon fill="none" stroke="black" points="667,-176 430,-176 430,-73 667,-73 667,-176"/>
<text text-anchor="start" x="461.12" y="-154.7" font-family="Times,serif" font-weight="bold" font-size="14.00">cms.medpar_2015.DGNSCD6</text>
<text text-anchor="start" x="466" y="-108.2" font-family="Times,serif" font-size="14.00">ICD&#45;9&#45;CM Diagnosis code VI</text>
<polygon fill="none" stroke="black" points="438,-77 438,-172 659,-172 659,-77 438,-77"/>
</a>
</g>
</g>
<!-- cms.medpar_2013.DGNSCD6&#45;&gt;cms.medpar_2015.DGNSCD6 -->
<!-- cms.medpar_2016.DGNSCD6 -->
<g id="node7" class="node">
<title>cms.medpar_2016.DGNSCD6</title>
<g id="a_node7"><a xlink:href="../cms.medpar_2016/DGNSCD6.html" xlink:title="&lt;TABLE&gt;" target="_blank">
<polygon fill="none" stroke="black" points="922,-176 685,-176 685,-73 922,-73 922,-176"/>
<text text-anchor="start" x="716.12" y="-154.7" font-family="Times,serif" font-weight="bold" font-size="14.00">cms.medpar_2016.DGNSCD6</text>
<text text-anchor="start" x="721" y="-108.2" font-family="Times,serif" font-size="14.00">ICD&#45;9&#45;CM Diagnosis code VI</text>
<polygon fill="none" stroke="black" points="693,-77 693,-172 914,-172 914,-77 693,-77"/>
</a>
</g>
</g>
<!-- cms.medpar_2013.DGNSCD6&#45;&gt;cms.medpar_2016.DGNSCD6 -->
<!-- cms.medpar_2017.DGNSCD6 -->
<g id="node8" class="node">
<title>cms.medpar_2017.DGNSCD6</title>
<g id="a_node8"><a xlink:href="../cms.medpar_2017/DGNSCD6.html" xlink:title="&lt;TABLE&gt;" target="_blank">
<polygon fill="none" stroke="black" points="1177,-176 940,-176 940,-73 1177,-73 1177,-176"/>
<text text-anchor="start" x="971.12" y="-154.7" font-family="Times,serif" font-weight="bold" font-size="14.00">cms.medpar_2017.DGNSCD6</text>
<text text-anchor="start" x="976" y="-108.2" font-family="Times,serif" font-size="14.00">ICD&#45;9&#45;CM Diagnosis code VI</text>
<polygon fill="none" stroke="black" points="948,-77 948,-172 1169,-172 1169,-77 948,-77"/>
</a>
</g>
</g>
<!-- cms.medpar_2013.DGNSCD6&#45;&gt;cms.medpar_2017.DGNSCD6 -->
<!-- cms.medpar_2018.DGNSCD6 -->
<g id="node9" class="node">
<title>cms.medpar_2018.DGNSCD6</title>
<g id="a_node9"><a xlink:href="../cms.medpar_2018/DGNSCD6.html" xlink:title="&lt;TABLE&gt;" target="_blank">
<polygon fill="none" stroke="black" points="1395.88,-176 1195.12,-176 1195.12,-73 1395.88,-73 1395.88,-176"/>
<text text-anchor="start" x="1208.12" y="-154.7" font-family="Times,serif" font-weight="bold" font-size="14.00">cms.medpar_2018.DGNSCD6</text>
<text text-anchor="start" x="1231.12" y="-108.2" font-family="Times,serif" font-size="14.00">Diagnosis code VI</text>
<polygon fill="none" stroke="black" points="1203.12,-77 1203.12,-172 1387.88,-172 1387.88,-77 1203.12,-77"/>
</a>
</g>
</g>
<!-- cms.medpar_2013.DGNSCD6&#45;&gt;cms.medpar_2018.DGNSCD6 -->
<!-- cms.medpar_2014.DGNSCD6 -->
<g id="node5" class="node">
<title>cms.medpar_2014.DGNSCD6</title>
<g id="a_node5"><a xlink:href="../cms.medpar_2014/DGNSCD6.html" xlink:title="&lt;TABLE&gt;" target="_blank">
<polygon fill="none" stroke="black" points="1550,-316 1313,-316 1313,-213 1550,-213 1550,-316"/>
<text text-anchor="start" x="1344.12" y="-294.7" font-family="Times,serif" font-weight="bold" font-size="14.00">cms.medpar_2014.DGNSCD6</text>
<text text-anchor="start" x="1349" y="-248.2" font-family="Times,serif" font-size="14.00">ICD&#45;9&#45;CM Diagnosis code VI</text>
<polygon fill="none" stroke="black" points="1321,-217 1321,-312 1542,-312 1542,-217 1321,-217"/>
</a>
</g>
</g>
<!-- cms.medpar_2014.DGNSCD6&#45;&gt;medicare.ip.diag6 -->
<g id="edge8" class="edge">
<title>cms.medpar_2014.DGNSCD6&#45;&gt;medicare.ip.diag6</title>
<path fill="none" stroke="chocolate" stroke-width="2" d="M1440.05,-212.73C1444.21,-169.1 1441.86,-107.87 1404.5,-73 1356.11,-27.84 914.22,-20.34 731.75,-19.17"/>
<polygon fill="chocolate" stroke="chocolate" stroke-width="2" points="731.86,-15.67 721.84,-19.12 731.82,-22.67 731.86,-15.67"/>
<text text-anchor="middle" x="1455.88" y="-119.45" font-family="Times,serif" font-size="14.00">union</text>
</g>
<!-- cms.medpar_2015.DGNSCD6&#45;&gt;medicare.ip.diag6 -->
<g id="edge9" class="edge">
<title>cms.medpar_2015.DGNSCD6&#45;&gt;medicare.ip.diag6</title>
<path fill="none" stroke="chocolate" stroke-width="2" d="M599.46,-72.78C608.93,-63.36 618.46,-53.88 626.82,-45.55"/>
<polygon fill="chocolate" stroke="chocolate" stroke-width="2" points="629.27,-48.05 633.89,-38.52 624.33,-43.09 629.27,-48.05"/>
<text text-anchor="middle" x="633.88" y="-49.45" font-family="Times,serif" font-size="14.00">union</text>
</g>
<!-- cms.medpar_2016.DGNSCD6&#45;&gt;medicare.ip.diag6 -->
<g id="edge10" class="edge">
<title>cms.medpar_2016.DGNSCD6&#45;&gt;medicare.ip.diag6</title>
<path fill="none" stroke="chocolate" stroke-width="2" d="M730.7,-72.78C716.15,-62.65 701.49,-52.43 688.91,-43.67"/>
<polygon fill="chocolate" stroke="chocolate" stroke-width="2" points="691.14,-40.96 680.93,-38.11 687.14,-46.7 691.14,-40.96"/>
<text text-anchor="middle" x="719.88" y="-49.45" font-family="Times,serif" font-size="14.00">union</text>
</g>
<!-- cms.medpar_2017.DGNSCD6&#45;&gt;medicare.ip.diag6 -->
<g id="edge11" class="edge">
<title>cms.medpar_2017.DGNSCD6&#45;&gt;medicare.ip.diag6</title>
<path fill="none" stroke="chocolate" stroke-width="2" d="M939.51,-75.73C936.49,-74.78 933.48,-73.87 930.5,-73 864.51,-53.73 787.64,-39.36 731.64,-30.31"/>
<polygon fill="chocolate" stroke="chocolate" stroke-width="2" points="732.36,-26.88 721.94,-28.76 731.27,-33.79 732.36,-26.88"/>
<text text-anchor="middle" x="874.88" y="-49.45" font-family="Times,serif" font-size="14.00">union</text>
</g>
<!-- cms.medpar_2018.DGNSCD6&#45;&gt;medicare.ip.diag6 -->
<g id="edge12" class="edge">
<title>cms.medpar_2018.DGNSCD6&#45;&gt;medicare.ip.diag6</title>
<path fill="none" stroke="chocolate" stroke-width="2" d="M1194.67,-75.7C1191.6,-74.73 1188.54,-73.83 1185.5,-73 1028.51,-30.27 837.14,-20.73 732.04,-18.97"/>
<polygon fill="chocolate" stroke="chocolate" stroke-width="2" points="732.11,-15.47 722.06,-18.83 732.01,-22.47 732.11,-15.47"/>
<text text-anchor="middle" x="1123.88" y="-49.45" font-family="Times,serif" font-size="14.00">union</text>
</g>
</g>
</svg>
