<?xml version="1.0" encoding="UTF-8" standalone="no"?>
<!DOCTYPE svg PUBLIC "-//W3C//DTD SVG 1.1//EN"
 "http://www.w3.org/Graphics/SVG/1.1/DTD/svg11.dtd">
<!-- Generated by graphviz version 10.0.1 (20240210.2158)
 -->
<!-- Pages: 1 -->
<svg width="1570pt" height="324pt"
 viewBox="0.00 0.00 1569.75 324.00" xmlns="http://www.w3.org/2000/svg" xmlns:xlink="http://www.w3.org/1999/xlink">
<g id="graph0" class="graph" transform="scale(1 1) rotate(0) translate(4 320)">
<polygon fill="white" stroke="none" points="-4,4 -4,-320 1565.75,-320 1565.75,4 -4,4"/>
<!-- medicare.ip.diag11 -->
<g id="node1" class="node">
<title>medicare.ip.diag11</title>
<g id="a_node1"><a xlink:href="../medicare.ip/diag11.html" xlink:title="&lt;TABLE&gt;" target="_blank">
<polygon fill="none" stroke="black" points="723.38,-36 586.38,-36 586.38,0 723.38,0 723.38,-36"/>
<text text-anchor="start" x="599.38" y="-13.95" font-family="Times,serif" font-weight="bold" font-size="14.00">medicare.ip.diag11</text>
<polygon fill="none" stroke="black" points="594.38,-4.75 594.38,-31.25 715.38,-31.25 715.38,-4.75 594.38,-4.75"/>
</a>
</g>
</g>
<!-- cms.medpar_2011.DGNSCD11 -->
<g id="node2" class="node">
<title>cms.medpar_2011.DGNSCD11</title>
<g id="a_node2"><a xlink:href="../cms.medpar_2011/DGNSCD11.html" xlink:title="&lt;TABLE&gt;" target="_blank">
<polygon fill="none" stroke="black" points="237.75,-316 0,-316 0,-213 237.75,-213 237.75,-316"/>
<text text-anchor="start" x="28.12" y="-294.7" font-family="Times,serif" font-weight="bold" font-size="14.00">cms.medpar_2011.DGNSCD11</text>
<text text-anchor="start" x="36" y="-248.2" font-family="Times,serif" font-size="14.00">ICD&#45;9&#45;CM Diagnosis code XI</text>
<polygon fill="none" stroke="black" points="8,-217 8,-312 229.75,-312 229.75,-217 8,-217"/>
</a>
</g>
</g>
<!-- cms.medpar_2011.DGNSCD11&#45;&gt;medicare.ip.diag11 -->
<g id="edge5" class="edge">
<title>cms.medpar_2011.DGNSCD11&#45;&gt;medicare.ip.diag11</title>
<path fill="none" stroke="chocolate" stroke-width="2" d="M171.69,-212.89C218.3,-170.55 289.7,-111.12 360.88,-73 426.75,-37.71 511.55,-25.04 573.13,-20.7"/>
<polygon fill="chocolate" stroke="chocolate" stroke-width="2" points="573.12,-24.21 582.88,-20.09 572.68,-17.22 573.12,-24.21"/>
<text text-anchor="middle" x="376.25" y="-119.45" font-family="Times,serif" font-size="14.00">union</text>
</g>
<!-- cms.medpar_2012.DGNSCD11 -->
<g id="node3" class="node">
<title>cms.medpar_2012.DGNSCD11</title>
<g id="a_node3"><a xlink:href="../cms.medpar_2012/DGNSCD11.html" xlink:title="&lt;TABLE&gt;" target="_blank">
<polygon fill="none" stroke="black" points="493.75,-316 256,-316 256,-213 493.75,-213 493.75,-316"/>
<text text-anchor="start" x="284.12" y="-294.7" font-family="Times,serif" font-weight="bold" font-size="14.00">cms.medpar_2012.DGNSCD11</text>
<text text-anchor="start" x="292" y="-248.2" font-family="Times,serif" font-size="14.00">ICD&#45;9&#45;CM Diagnosis code XI</text>
<polygon fill="none" stroke="black" points="264,-217 264,-312 485.75,-312 485.75,-217 264,-217"/>
</a>
</g>
</g>
<!-- cms.medpar_2012.DGNSCD11&#45;&gt;medicare.ip.diag11 -->
<g id="edge6" class="edge">
<title>cms.medpar_2012.DGNSCD11&#45;&gt;medicare.ip.diag11</title>
<path fill="none" stroke="chocolate" stroke-width="2" d="M366.6,-212.84C362.7,-171.05 364.32,-112.43 394.88,-73 416.5,-45.1 505.28,-31.26 573.14,-24.64"/>
<polygon fill="chocolate" stroke="chocolate" stroke-width="2" points="573.33,-28.13 582.97,-23.72 572.69,-21.16 573.33,-28.13"/>
<text text-anchor="middle" x="410.25" y="-119.45" font-family="Times,serif" font-size="14.00">union</text>
</g>
<!-- cms.medpar_2013.DGNSCD11 -->
<g id="node4" class="node">
<title>cms.medpar_2013.DGNSCD11</title>
<g id="a_node4"><a xlink:href="../cms.medpar_2013/DGNSCD11.html" xlink:title="&lt;TABLE&gt;" target="_blank">
<polygon fill="none" stroke="black" points="924.75,-316 687,-316 687,-213 924.75,-213 924.75,-316"/>
<text text-anchor="start" x="715.12" y="-294.7" font-family="Times,serif" font-weight="bold" font-size="14.00">cms.medpar_2013.DGNSCD11</text>
<text text-anchor="start" x="723" y="-248.2" font-family="Times,serif" font-size="14.00">ICD&#45;9&#45;CM Diagnosis code XI</text>
<polygon fill="none" stroke="black" points="695,-217 695,-312 916.75,-312 916.75,-217 695,-217"/>
</a>
</g>
</g>
<!-- cms.medpar_2013.DGNSCD11&#45;&gt;medicare.ip.diag11 -->
<g id="edge7" class="edge">
<title>cms.medpar_2013.DGNSCD11&#45;&gt;medicare.ip.diag11</title>
<path fill="none" stroke="chocolate" stroke-width="2" d="M686.73,-244.06C580.01,-225.44 437.74,-197.13 420.88,-176 392.32,-140.22 392.38,-108.82 420.88,-73 439.86,-49.14 513.54,-34.92 573.21,-27.11"/>
<polygon fill="chocolate" stroke="chocolate" stroke-width="2" points="573.61,-30.58 583.09,-25.87 572.74,-23.64 573.61,-30.58"/>
<text text-anchor="middle" x="436.25" y="-119.45" font-family="Times,serif" font-size="14.00">union</text>
</g>
<!-- cms.medpar_2015.DGNSCD11 -->
<g id="node6" class="node">
<title>cms.medpar_2015.DGNSCD11</title>
<g id="a_node6"><a xlink:href="../cms.medpar_2015/DGNSCD11.html" xlink:title="&lt;TABLE&gt;" target="_blank">
<polygon fill="none" stroke="black" points="668.75,-176 431,-176 431,-73 668.75,-73 668.75,-176"/>
<text text-anchor="start" x="459.12" y="-154.7" font-family="Times,serif" font-weight="bold" font-size="14.00">cms.medpar_2015.DGNSCD11</text>
<text text-anchor="start" x="467" y="-108.2" font-family="Times,serif" font-size="14.00">ICD&#45;9&#45;CM Diagnosis code XI</text>
<polygon fill="none" stroke="black" points="439,-77 439,-172 660.75,-172 660.75,-77 439,-77"/>
</a>
</g>
</g>
<!-- cms.medpar_2013.DGNSCD11&#45;&gt;cms.medpar_2015.DGNSCD11 -->
<!-- cms.medpar_2016.DGNSCD11 -->
<g id="node7" class="node">
<title>cms.medpar_2016.DGNSCD11</title>
<g id="a_node7"><a xlink:href="../cms.medpar_2016/DGNSCD11.html" xlink:title="&lt;TABLE&gt;" target="_blank">
<polygon fill="none" stroke="black" points="924.75,-176 687,-176 687,-73 924.75,-73 924.75,-176"/>
<text text-anchor="start" x="715.12" y="-154.7" font-family="Times,serif" font-weight="bold" font-size="14.00">cms.medpar_2016.DGNSCD11</text>
<text text-anchor="start" x="723" y="-108.2" font-family="Times,serif" font-size="14.00">ICD&#45;9&#45;CM Diagnosis code XI</text>
<polygon fill="none" stroke="black" points="695,-77 695,-172 916.75,-172 916.75,-77 695,-77"/>
</a>
</g>
</g>
<!-- cms.medpar_2013.DGNSCD11&#45;&gt;cms.medpar_2016.DGNSCD11 -->
<!-- cms.medpar_2017.DGNSCD11 -->
<g id="node8" class="node">
<title>cms.medpar_2017.DGNSCD11</title>
<g id="a_node8"><a xlink:href="../cms.medpar_2017/DGNSCD11.html" xlink:title="&lt;TABLE&gt;" target="_blank">
<polygon fill="none" stroke="black" points="1180.75,-176 943,-176 943,-73 1180.75,-73 1180.75,-176"/>
<text text-anchor="start" x="971.12" y="-154.7" font-family="Times,serif" font-weight="bold" font-size="14.00">cms.medpar_2017.DGNSCD11</text>
<text text-anchor="start" x="979" y="-108.2" font-family="Times,serif" font-size="14.00">ICD&#45;9&#45;CM Diagnosis code XI</text>
<polygon fill="none" stroke="black" points="951,-77 951,-172 1172.75,-172 1172.75,-77 951,-77"/>
</a>
</g>
</g>
<!-- cms.medpar_2013.DGNSCD11&#45;&gt;cms.medpar_2017.DGNSCD11 -->
<!-- cms.medpar_2018.DGNSCD11 -->
<g id="node9" class="node">
<title>cms.medpar_2018.DGNSCD11</title>
<g id="a_node9"><a xlink:href="../cms.medpar_2018/DGNSCD11.html" xlink:title="&lt;TABLE&gt;" target="_blank">
<polygon fill="none" stroke="black" points="1406.62,-176 1199.12,-176 1199.12,-73 1406.62,-73 1406.62,-176"/>
<text text-anchor="start" x="1212.12" y="-154.7" font-family="Times,serif" font-weight="bold" font-size="14.00">cms.medpar_2018.DGNSCD11</text>
<text text-anchor="start" x="1235.12" y="-108.2" font-family="Times,serif" font-size="14.00">Diagnosis code XI</text>
<polygon fill="none" stroke="black" points="1207.12,-77 1207.12,-172 1398.62,-172 1398.62,-77 1207.12,-77"/>
</a>
</g>
</g>
<!-- cms.medpar_2013.DGNSCD11&#45;&gt;cms.medpar_2018.DGNSCD11 -->
<!-- cms.medpar_2014.DGNSCD11 -->
<g id="node5" class="node">
<title>cms.medpar_2014.DGNSCD11</title>
<g id="a_node5"><a xlink:href="../cms.medpar_2014/DGNSCD11.html" xlink:title="&lt;TABLE&gt;" target="_blank">
<polygon fill="none" stroke="black" points="1561.75,-316 1324,-316 1324,-213 1561.75,-213 1561.75,-316"/>
<text text-anchor="start" x="1352.12" y="-294.7" font-family="Times,serif" font-weight="bold" font-size="14.00">cms.medpar_2014.DGNSCD11</text>
<text text-anchor="start" x="1360" y="-248.2" font-family="Times,serif" font-size="14.00">ICD&#45;9&#45;CM Diagnosis code XI</text>
<polygon fill="none" stroke="black" points="1332,-217 1332,-312 1553.75,-312 1553.75,-217 1332,-217"/>
</a>
</g>
</g>
<!-- cms.medpar_2014.DGNSCD11&#45;&gt;medicare.ip.diag11 -->
<g id="edge8" class="edge">
<title>cms.medpar_2014.DGNSCD11&#45;&gt;medicare.ip.diag11</title>
<path fill="none" stroke="chocolate" stroke-width="2" d="M1451.43,-212.73C1455.6,-169.09 1453.25,-107.85 1415.88,-73 1367.04,-27.46 922.92,-20.16 736.58,-19.11"/>
<polygon fill="chocolate" stroke="chocolate" stroke-width="2" points="736.66,-15.61 726.65,-19.06 736.63,-22.61 736.66,-15.61"/>
<text text-anchor="middle" x="1467.25" y="-119.45" font-family="Times,serif" font-size="14.00">union</text>
</g>
<!-- cms.medpar_2015.DGNSCD11&#45;&gt;medicare.ip.diag11 -->
<g id="edge9" class="edge">
<title>cms.medpar_2015.DGNSCD11&#45;&gt;medicare.ip.diag11</title>
<path fill="none" stroke="chocolate" stroke-width="2" d="M600.84,-72.78C610.3,-63.36 619.83,-53.88 628.2,-45.55"/>
<polygon fill="chocolate" stroke="chocolate" stroke-width="2" points="630.64,-48.05 635.26,-38.52 625.71,-43.09 630.64,-48.05"/>
<text text-anchor="middle" x="635.25" y="-49.45" font-family="Times,serif" font-size="14.00">union</text>
</g>
<!-- cms.medpar_2016.DGNSCD11&#45;&gt;medicare.ip.diag11 -->
<g id="edge10" class="edge">
<title>cms.medpar_2016.DGNSCD11&#45;&gt;medicare.ip.diag11</title>
<path fill="none" stroke="chocolate" stroke-width="2" d="M732.59,-72.78C717.94,-62.65 703.18,-52.43 690.52,-43.67"/>
<polygon fill="chocolate" stroke="chocolate" stroke-width="2" points="692.7,-40.92 682.48,-38.11 688.71,-46.67 692.7,-40.92"/>
<text text-anchor="middle" x="721.25" y="-49.45" font-family="Times,serif" font-size="14.00">union</text>
</g>
<!-- cms.medpar_2017.DGNSCD11&#45;&gt;medicare.ip.diag11 -->
<g id="edge11" class="edge">
<title>cms.medpar_2017.DGNSCD11&#45;&gt;medicare.ip.diag11</title>
<path fill="none" stroke="chocolate" stroke-width="2" d="M942.54,-75.62C939.63,-74.71 936.74,-73.84 933.88,-73 868.51,-53.96 792.54,-39.75 736.4,-30.7"/>
<polygon fill="chocolate" stroke="chocolate" stroke-width="2" points="737.07,-27.27 726.64,-29.16 735.97,-34.18 737.07,-27.27"/>
<text text-anchor="middle" x="878.25" y="-49.45" font-family="Times,serif" font-size="14.00">union</text>
</g>
<!-- cms.medpar_2018.DGNSCD11&#45;&gt;medicare.ip.diag11 -->
<g id="edge12" class="edge">
<title>cms.medpar_2018.DGNSCD11&#45;&gt;medicare.ip.diag11</title>
<path fill="none" stroke="chocolate" stroke-width="2" d="M1198.64,-75.51C1195.71,-74.62 1192.78,-73.77 1189.88,-73 1033.14,-31.23 842.71,-21.29 736.52,-19.21"/>
<polygon fill="chocolate" stroke="chocolate" stroke-width="2" points="736.77,-15.71 726.71,-19.04 736.65,-22.71 736.77,-15.71"/>
<text text-anchor="middle" x="1124.25" y="-49.45" font-family="Times,serif" font-size="14.00">union</text>
</g>
</g>
</svg>
