<?xml version="1.0" encoding="UTF-8" standalone="no"?>
<!DOCTYPE svg PUBLIC "-//W3C//DTD SVG 1.1//EN"
 "http://www.w3.org/Graphics/SVG/1.1/DTD/svg11.dtd">
<!-- Generated by graphviz version 10.0.1 (20240210.2158)
 -->
<!-- Pages: 1 -->
<svg width="1047pt" height="490pt"
 viewBox="0.00 0.00 1047.00 490.00" xmlns="http://www.w3.org/2000/svg" xmlns:xlink="http://www.w3.org/1999/xlink">
<g id="graph0" class="graph" transform="scale(1 1) rotate(0) translate(4 486)">
<polygon fill="white" stroke="none" points="-4,4 -4,-486 1043,-486 1043,4 -4,4"/>
<!-- medicare._ps.dod -->
<g id="node1" class="node">
<title>medicare._ps.dod</title>
<g id="a_node1"><a xlink:href="../medicare._ps/dod.html" xlink:title="&lt;TABLE&gt;" target="_blank">
<polygon fill="none" stroke="black" points="1039,-150 0,-150 0,0 1039,0 1039,-150"/>
<text text-anchor="start" x="87.62" y="-128.7" font-family="Times,serif" font-weight="bold" font-size="14.00">medicare._ps.dod</text>
<text text-anchor="start" x="35.88" y="-82.7" font-family="Times,serif" font-size="14.00">Date of beneficiary death, if available</text>
<polygon fill="none" stroke="black" points="11,-31 11,-53 267,-53 267,-31 11,-31"/>
<text text-anchor="start" x="14" y="-36.7" font-family="Times,serif" font-size="14.00">character varying →</text>
<polygon fill="none" stroke="black" points="269,-31 269,-53 1028,-53 1028,-31 269,-31"/>
<text text-anchor="start" x="272" y="-36.7" font-family="Times,serif" font-size="14.00">(CASE WHEN {column_name} = &#39;00000000&#39; THEN NULL ELSE public.parse_date({column_name}) END)</text>
<polygon fill="none" stroke="black" points="11,-7 11,-29 267,-29 267,-7 11,-7"/>
<text text-anchor="start" x="14" y="-12.7" font-family="Times,serif" font-size="14.00">numeric →</text>
<polygon fill="none" stroke="black" points="269,-7 269,-29 1028,-29 1028,-7 269,-7"/>
<text text-anchor="start" x="272" y="-12.7" font-family="Times,serif" font-size="14.00">(CASE WHEN {column_name} &lt; 19000000 THEN NULL ELSE to_date(to_char({column_name}, &#39;00000000&#39;), &#39;YYYYMMDD&#39;) END)</text>
<polygon fill="none" stroke="black" points="8,-4 8,-146 1031,-146 1031,-4 8,-4"/>
</a>
</g>
</g>
<!-- medicare.ps.dod -->
<g id="node2" class="node">
<title>medicare.ps.dod</title>
<g id="a_node2"><a xlink:href="../medicare.ps/dod.html" xlink:title="&lt;TABLE&gt;" target="_blank">
<polygon fill="none" stroke="black" points="1039,-337 0,-337 0,-187 1039,-187 1039,-337"/>
<text text-anchor="start" x="91" y="-315.7" font-family="Times,serif" font-weight="bold" font-size="14.00">medicare.ps.dod</text>
<text text-anchor="start" x="35.88" y="-269.7" font-family="Times,serif" font-size="14.00">Date of beneficiary death, if available</text>
<polygon fill="none" stroke="black" points="11,-218 11,-240 267,-240 267,-218 11,-218"/>
<text text-anchor="start" x="14" y="-223.7" font-family="Times,serif" font-size="14.00">character varying →</text>
<polygon fill="none" stroke="black" points="269,-218 269,-240 1028,-240 1028,-218 269,-218"/>
<text text-anchor="start" x="272" y="-223.7" font-family="Times,serif" font-size="14.00">(CASE WHEN {column_name} = &#39;00000000&#39; THEN NULL ELSE public.parse_date({column_name}) END)</text>
<polygon fill="none" stroke="black" points="11,-194 11,-216 267,-216 267,-194 11,-194"/>
<text text-anchor="start" x="14" y="-199.7" font-family="Times,serif" font-size="14.00">numeric →</text>
<polygon fill="none" stroke="black" points="269,-194 269,-216 1028,-216 1028,-194 269,-194"/>
<text text-anchor="start" x="272" y="-199.7" font-family="Times,serif" font-size="14.00">(CASE WHEN {column_name} &lt; 19000000 THEN NULL ELSE to_date(to_char({column_name}, &#39;00000000&#39;), &#39;YYYYMMDD&#39;) END)</text>
<polygon fill="none" stroke="black" points="8,-191 8,-333 1031,-333 1031,-191 8,-191"/>
</a>
</g>
</g>
<!-- medicare.ps.dod&#45;&gt;medicare._ps.dod -->
<g id="edge1" class="edge">
<title>medicare.ps.dod&#45;&gt;medicare._ps.dod</title>
<path fill="none" stroke="black" d="M519.5,-186.55C519.5,-178.34 519.5,-169.93 519.5,-161.59"/>
<polygon fill="black" stroke="black" points="523,-161.81 519.5,-151.81 516,-161.81 523,-161.81"/>
<text text-anchor="middle" x="539" y="-163.45" font-family="Times,serif" font-size="14.00">Copied</text>
</g>
<!-- medicare.ps.dod_parent -->
<g id="node3" class="node">
<title>medicare.ps.dod_parent</title>
<g id="a_node3"><a xlink:href="../medicare.ps/dod.html" xlink:title="8 incoming links (columns)" target="_blank">
<path fill="yellow" stroke="black" d="M627.5,-472.18C627.5,-477.6 579.09,-482 519.5,-482 459.91,-482 411.5,-477.6 411.5,-472.18 411.5,-472.18 411.5,-383.82 411.5,-383.82 411.5,-378.4 459.91,-374 519.5,-374 579.09,-374 627.5,-378.4 627.5,-383.82 627.5,-383.82 627.5,-472.18 627.5,-472.18"/>
<path fill="none" stroke="black" d="M627.5,-472.18C627.5,-466.76 579.09,-462.36 519.5,-462.36 459.91,-462.36 411.5,-466.76 411.5,-472.18"/>
<text text-anchor="middle" x="519.5" y="-422.95" font-family="Times,serif" font-size="14.00">8 incoming links (columns)</text>
</a>
</g>
</g>
<!-- medicare.ps.dod_parent&#45;&gt;medicare.ps.dod -->
<g id="edge2" class="edge">
<title>medicare.ps.dod_parent&#45;&gt;medicare.ps.dod</title>
<path fill="none" stroke="goldenrod" stroke-width="6" d="M519.5,-373.75C519.5,-367.32 519.5,-360.62 519.5,-353.83"/>
<polygon fill="goldenrod" stroke="goldenrod" stroke-width="6" points="524.75,-353.88 519.5,-343.88 514.25,-353.88 524.75,-353.88"/>
</g>
</g>
</svg>
