<?xml version="1.0" encoding="UTF-8" standalone="no"?>
<!DOCTYPE svg PUBLIC "-//W3C//DTD SVG 1.1//EN"
 "http://www.w3.org/Graphics/SVG/1.1/DTD/svg11.dtd">
<!-- Generated by graphviz version 10.0.1 (20240210.2158)
 -->
<!-- Pages: 1 -->
<svg width="759pt" height="259pt"
 viewBox="0.00 0.00 759.00 259.00" xmlns="http://www.w3.org/2000/svg" xmlns:xlink="http://www.w3.org/1999/xlink">
<g id="graph0" class="graph" transform="scale(1 1) rotate(0) translate(4 255)">
<polygon fill="white" stroke="none" points="-4,4 -4,-255 755,-255 755,4 -4,4"/>
<!-- medicare.qc_enrl_bene.number_of_gap_years -->
<g id="node1" class="node">
<title>medicare.qc_enrl_bene.number_of_gap_years</title>
<g id="a_node1"><a xlink:href="../medicare.qc_enrl_bene/number_of_gap_years.html" xlink:title="&lt;TABLE&gt;" target="_blank">
<polygon fill="none" stroke="black" points="751,-59 0,-59 0,0 751,0 751,-59"/>
<text text-anchor="start" x="241.25" y="-37.7" font-family="Times,serif" font-weight="bold" font-size="14.00">medicare.qc_enrl_bene.number_of_gap_years</text>
<polygon fill="none" stroke="black" points="11,-7 11,-29.5 740,-29.5 740,-7 11,-7"/>
<text text-anchor="start" x="14" y="-13.2" font-family="Times,serif" font-size="14.00">GENERATED ALWAYS AS (last_enrollment_year &#45; first_enrollment_year + 1 &#45; CARDINALITY(all_enrollment_years)) STORED</text>
<polygon fill="none" stroke="black" points="8,-4 8,-55 743,-55 743,-4 8,-4"/>
</a>
</g>
</g>
<!-- medicare.beneficiaries.all_enrollment_years -->
<g id="node2" class="node">
<title>medicare.beneficiaries.all_enrollment_years</title>
<g id="a_node2"><a xlink:href="../medicare.beneficiaries/all_enrollment_years.html" xlink:title="&lt;TABLE&gt;" target="_blank">
<polygon fill="none" stroke="black" points="528.62,-155 222.38,-155 222.38,-96 528.62,-96 528.62,-155"/>
<text text-anchor="start" x="247.25" y="-133.7" font-family="Times,serif" font-weight="bold" font-size="14.00">medicare.beneficiaries.all_enrollment_years</text>
<polygon fill="none" stroke="black" points="233.38,-103 233.38,-125.5 517.62,-125.5 517.62,-103 233.38,-103"/>
<text text-anchor="start" x="236.38" y="-109.2" font-family="Times,serif" font-size="14.00">ARRAY_AGG(DISTINCT year ORDER BY year)</text>
<polygon fill="none" stroke="black" points="230.38,-100 230.38,-151 520.62,-151 520.62,-100 230.38,-100"/>
</a>
</g>
</g>
<!-- medicare.beneficiaries.all_enrollment_years&#45;&gt;medicare.qc_enrl_bene.number_of_gap_years -->
<g id="edge1" class="edge">
<title>medicare.beneficiaries.all_enrollment_years&#45;&gt;medicare.qc_enrl_bene.number_of_gap_years</title>
<path fill="none" stroke="black" d="M375.5,-95.53C375.5,-87.68 375.5,-79.05 375.5,-70.7"/>
<polygon fill="black" stroke="black" points="379,-70.73 375.5,-60.73 372,-70.73 379,-70.73"/>
<text text-anchor="middle" x="421.62" y="-72.45" font-family="Times,serif" font-size="14.00">	join natural</text>
</g>
<!-- medicare._beneficiaries.all_enrollment_years -->
<g id="node3" class="node">
<title>medicare._beneficiaries.all_enrollment_years</title>
<g id="a_node3"><a xlink:href="../medicare._beneficiaries/all_enrollment_years.html" xlink:title="&lt;TABLE&gt;" target="_blank">
<polygon fill="none" stroke="black" points="528.62,-251 222.38,-251 222.38,-192 528.62,-192 528.62,-251"/>
<text text-anchor="start" x="243.88" y="-229.7" font-family="Times,serif" font-weight="bold" font-size="14.00">medicare._beneficiaries.all_enrollment_years</text>
<polygon fill="none" stroke="black" points="233.38,-199 233.38,-221.5 517.62,-221.5 517.62,-199 233.38,-199"/>
<text text-anchor="start" x="236.38" y="-205.2" font-family="Times,serif" font-size="14.00">ARRAY_AGG(DISTINCT year ORDER BY year)</text>
<polygon fill="none" stroke="black" points="230.38,-196 230.38,-247 520.62,-247 520.62,-196 230.38,-196"/>
</a>
</g>
</g>
<!-- medicare._beneficiaries.all_enrollment_years&#45;&gt;medicare.beneficiaries.all_enrollment_years -->
<g id="edge2" class="edge">
<title>medicare._beneficiaries.all_enrollment_years&#45;&gt;medicare.beneficiaries.all_enrollment_years</title>
<path fill="none" stroke="black" d="M375.5,-191.53C375.5,-183.68 375.5,-175.05 375.5,-166.7"/>
<polygon fill="black" stroke="black" points="379,-166.73 375.5,-156.73 372,-166.73 379,-166.73"/>
<text text-anchor="middle" x="395" y="-168.45" font-family="Times,serif" font-size="14.00">Copied</text>
</g>
</g>
</svg>
