<?xml version="1.0" encoding="UTF-8" standalone="no"?>
<!DOCTYPE svg PUBLIC "-//W3C//DTD SVG 1.1//EN"
 "http://www.w3.org/Graphics/SVG/1.1/DTD/svg11.dtd">
<!-- Generated by graphviz version 10.0.1 (20240210.2158)
 -->
<!-- Pages: 1 -->
<svg width="332pt" height="451pt"
 viewBox="0.00 0.00 332.25 451.00" xmlns="http://www.w3.org/2000/svg" xmlns:xlink="http://www.w3.org/1999/xlink">
<g id="graph0" class="graph" transform="scale(1 1) rotate(0) translate(4 447)">
<polygon fill="white" stroke="none" points="-4,4 -4,-447 328.25,-447 328.25,4 -4,4"/>
<!-- medicare.qc_admissions.state_iso -->
<g id="node1" class="node">
<title>medicare.qc_admissions.state_iso</title>
<g id="a_node1"><a xlink:href="../medicare.qc_admissions/state_iso.html" xlink:title="&lt;TABLE&gt;" target="_blank">
<polygon fill="none" stroke="black" points="272.62,-59 51.62,-59 51.62,0 272.62,0 272.62,-59"/>
<text text-anchor="start" x="64.62" y="-37.7" font-family="Times,serif" font-weight="bold" font-size="14.00">medicare.qc_admissions.state_iso</text>
<polygon fill="none" stroke="black" points="62.62,-7 62.62,-29.5 261.62,-29.5 261.62,-7 62.62,-7"/>
<text text-anchor="start" x="65.62" y="-13.2" font-family="Times,serif" font-size="14.00">MAX(state_iso)</text>
<polygon fill="none" stroke="black" points="59.62,-4 59.62,-55 264.62,-55 264.62,-4 59.62,-4"/>
</a>
</g>
</g>
<!-- medicare.qc_adm_union.state_iso -->
<g id="node2" class="node">
<title>medicare.qc_adm_union.state_iso</title>
<g id="a_node2"><a xlink:href="../medicare.qc_adm_union/state_iso.html" xlink:title="&lt;TABLE&gt;" target="_blank">
<polygon fill="none" stroke="black" points="324.25,-155 0,-155 0,-96 324.25,-96 324.25,-155"/>
<text text-anchor="start" x="63.5" y="-133.7" font-family="Times,serif" font-weight="bold" font-size="14.00">medicare.qc_adm_union.state_iso</text>
<polygon fill="none" stroke="black" points="11,-103 11,-125.5 313.25,-125.5 313.25,-103 11,-103"/>
<text text-anchor="start" x="14" y="-109.2" font-family="Times,serif" font-size="14.00">GENERATED ALWAYS AS (&#39;US&#45;&#39; || state) &#160;STORED</text>
<polygon fill="none" stroke="black" points="8,-100 8,-151 316.25,-151 316.25,-100 8,-100"/>
</a>
</g>
</g>
<!-- medicare.qc_adm_union.state_iso&#45;&gt;medicare.qc_admissions.state_iso -->
<g id="edge1" class="edge">
<title>medicare.qc_adm_union.state_iso&#45;&gt;medicare.qc_admissions.state_iso</title>
<path fill="none" stroke="black" d="M162.12,-95.53C162.12,-87.68 162.12,-79.05 162.12,-70.7"/>
<polygon fill="black" stroke="black" points="165.63,-70.73 162.13,-60.73 158.63,-70.73 165.63,-70.73"/>
<text text-anchor="middle" x="200.75" y="-72.45" font-family="Times,serif" font-size="14.00"> &#160;Transformed</text>
</g>
<!-- medicare.admissions.state_iso -->
<g id="node3" class="node">
<title>medicare.admissions.state_iso</title>
<g id="a_node3"><a xlink:href="../medicare.admissions/state_iso.html" xlink:title="&lt;TABLE&gt;" target="_blank">
<polygon fill="none" stroke="black" points="324.25,-251 0,-251 0,-192 324.25,-192 324.25,-251"/>
<text text-anchor="start" x="74.75" y="-229.7" font-family="Times,serif" font-weight="bold" font-size="14.00">medicare.admissions.state_iso</text>
<polygon fill="none" stroke="black" points="11,-199 11,-221.5 313.25,-221.5 313.25,-199 11,-199"/>
<text text-anchor="start" x="14" y="-205.2" font-family="Times,serif" font-size="14.00">GENERATED ALWAYS AS (&#39;US&#45;&#39; || state) &#160;STORED</text>
<polygon fill="none" stroke="black" points="8,-196 8,-247 316.25,-247 316.25,-196 8,-196"/>
</a>
</g>
</g>
<!-- medicare.admissions.state_iso&#45;&gt;medicare.qc_adm_union.state_iso -->
<g id="edge2" class="edge">
<title>medicare.admissions.state_iso&#45;&gt;medicare.qc_adm_union.state_iso</title>
<path fill="none" stroke="black" d="M162.12,-191.53C162.12,-183.68 162.12,-175.05 162.12,-166.7"/>
<polygon fill="black" stroke="black" points="165.63,-166.73 162.13,-156.73 158.63,-166.73 165.63,-166.73"/>
<text text-anchor="middle" x="181.62" y="-168.45" font-family="Times,serif" font-size="14.00">Copied</text>
</g>
<!-- medicare.enrollments.state_iso -->
<g id="node4" class="node">
<title>medicare.enrollments.state_iso</title>
<g id="a_node4"><a xlink:href="../medicare.enrollments/state_iso.html" xlink:title="&lt;TABLE&gt;" target="_blank">
<polygon fill="none" stroke="black" points="265.12,-347 59.12,-347 59.12,-288 265.12,-288 265.12,-347"/>
<text text-anchor="start" x="72.12" y="-325.7" font-family="Times,serif" font-weight="bold" font-size="14.00">medicare.enrollments.state_iso</text>
<polygon fill="none" stroke="black" points="70.12,-295 70.12,-317.5 254.12,-317.5 254.12,-295 70.12,-295"/>
<text text-anchor="start" x="73.12" y="-301.2" font-family="Times,serif" font-size="14.00">(&#39;US&#45;&#39; || state) </text>
<polygon fill="none" stroke="black" points="67.12,-292 67.12,-343 257.12,-343 257.12,-292 67.12,-292"/>
</a>
</g>
</g>
<!-- medicare.enrollments.state_iso&#45;&gt;medicare.admissions.state_iso -->
<g id="edge3" class="edge">
<title>medicare.enrollments.state_iso&#45;&gt;medicare.admissions.state_iso</title>
<path fill="none" stroke="darkorchid" stroke-width="2" d="M162.12,-287.53C162.12,-280.13 162.12,-272.04 162.12,-264.14"/>
<polygon fill="darkorchid" stroke="darkorchid" stroke-width="2" points="165.63,-264.24 162.13,-254.24 158.63,-264.24 165.63,-264.24"/>
<text text-anchor="middle" x="194.75" y="-264.45" font-family="Times,serif" font-size="14.00">parent&#45;child</text>
</g>
<!-- medicare._enrollments.state_iso -->
<g id="node5" class="node">
<title>medicare._enrollments.state_iso</title>
<g id="a_node5"><a xlink:href="../medicare._enrollments/state_iso.html" xlink:title="&lt;TABLE&gt;" target="_blank">
<polygon fill="none" stroke="black" points="268.5,-443 55.75,-443 55.75,-384 268.5,-384 268.5,-443"/>
<text text-anchor="start" x="68.75" y="-421.7" font-family="Times,serif" font-weight="bold" font-size="14.00">medicare._enrollments.state_iso</text>
<polygon fill="none" stroke="black" points="66.75,-391 66.75,-413.5 257.5,-413.5 257.5,-391 66.75,-391"/>
<text text-anchor="start" x="69.75" y="-397.2" font-family="Times,serif" font-size="14.00">(&#39;US&#45;&#39; || state) </text>
<polygon fill="none" stroke="black" points="63.75,-388 63.75,-439 260.5,-439 260.5,-388 63.75,-388"/>
</a>
</g>
</g>
<!-- medicare._enrollments.state_iso&#45;&gt;medicare.enrollments.state_iso -->
<g id="edge4" class="edge">
<title>medicare._enrollments.state_iso&#45;&gt;medicare.enrollments.state_iso</title>
<path fill="none" stroke="black" d="M162.12,-383.53C162.12,-375.68 162.12,-367.05 162.12,-358.7"/>
<polygon fill="black" stroke="black" points="165.63,-358.73 162.13,-348.73 158.63,-358.73 165.63,-358.73"/>
<text text-anchor="middle" x="181.62" y="-360.45" font-family="Times,serif" font-size="14.00">Copied</text>
</g>
</g>
</svg>
