<?xml version="1.0" encoding="UTF-8" standalone="no"?>
<!DOCTYPE svg PUBLIC "-//W3C//DTD SVG 1.1//EN"
 "http://www.w3.org/Graphics/SVG/1.1/DTD/svg11.dtd">
<!-- Generated by graphviz version 10.0.1 (20240210.2158)
 -->
<!-- Pages: 1 -->
<svg width="1124pt" height="454pt"
 viewBox="0.00 0.00 1123.50 454.00" xmlns="http://www.w3.org/2000/svg" xmlns:xlink="http://www.w3.org/1999/xlink">
<g id="graph0" class="graph" transform="scale(1 1) rotate(0) translate(4 450)">
<polygon fill="white" stroke="none" points="-4,4 -4,-450 1119.5,-450 1119.5,4 -4,4"/>
<!-- medicare.enrollments.year -->
<g id="node1" class="node">
<title>medicare.enrollments.year</title>
<g id="a_node1"><a xlink:href="../medicare.enrollments/year.html" xlink:title="&lt;TABLE&gt;" target="_blank">
<polygon fill="none" stroke="black" points="648.75,-36 466.75,-36 466.75,0 648.75,0 648.75,-36"/>
<text text-anchor="start" x="479.75" y="-13.95" font-family="Times,serif" font-weight="bold" font-size="14.00">medicare.enrollments.year</text>
<polygon fill="none" stroke="black" points="474.75,-4.75 474.75,-31.25 640.75,-31.25 640.75,-4.75 474.75,-4.75"/>
</a>
</g>
</g>
<!-- medicare._enrollments.year -->
<g id="node2" class="node">
<title>medicare._enrollments.year</title>
<g id="a_node2"><a xlink:href="../medicare._enrollments/year.html" xlink:title="&lt;TABLE&gt;" target="_blank">
<polygon fill="none" stroke="black" points="652.12,-109 463.38,-109 463.38,-73 652.12,-73 652.12,-109"/>
<text text-anchor="start" x="476.38" y="-86.95" font-family="Times,serif" font-weight="bold" font-size="14.00">medicare._enrollments.year</text>
<polygon fill="none" stroke="black" points="471.38,-77.75 471.38,-104.25 644.12,-104.25 644.12,-77.75 471.38,-77.75"/>
</a>
</g>
</g>
<!-- medicare._enrollments.year&#45;&gt;medicare.enrollments.year -->
<g id="edge1" class="edge">
<title>medicare._enrollments.year&#45;&gt;medicare.enrollments.year</title>
<path fill="none" stroke="black" d="M557.75,-72.81C557.75,-65.23 557.75,-56.1 557.75,-47.54"/>
<polygon fill="black" stroke="black" points="561.25,-47.54 557.75,-37.54 554.25,-47.54 561.25,-47.54"/>
<text text-anchor="middle" x="577.25" y="-49.45" font-family="Times,serif" font-size="14.00">Copied</text>
</g>
<!-- medicare._ps.year -->
<g id="node3" class="node">
<title>medicare._ps.year</title>
<g id="a_node3"><a xlink:href="../medicare._ps/year.html" xlink:title="&lt;TABLE&gt;" target="_blank">
<polygon fill="none" stroke="black" points="1115.5,-205 0,-205 0,-146 1115.5,-146 1115.5,-205"/>
<text text-anchor="start" x="504.5" y="-183.7" font-family="Times,serif" font-weight="bold" font-size="14.00">medicare._ps.year</text>
<polygon fill="none" stroke="black" points="11,-153 11,-175.5 1104.5,-175.5 1104.5,-153 11,-153"/>
<text text-anchor="start" x="14" y="-159.2" font-family="Times,serif" font-size="14.00">(CASE WHEN &quot;year&quot;::int &lt; 20 THEN (2000 + &quot;year&quot;::int) WHEN (20 &lt; &quot;year&quot;::int AND &quot;year&quot;::int &lt; 100) THEN (1900 + &quot;year&quot;::int) WHEN &quot;year&quot; IS NULL THEN 2000 ELSE &quot;year&quot;::int END)</text>
<polygon fill="none" stroke="black" points="8,-150 8,-201 1107.5,-201 1107.5,-150 8,-150"/>
</a>
</g>
</g>
<!-- medicare._ps.year&#45;&gt;medicare._enrollments.year -->
<g id="edge2" class="edge">
<title>medicare._ps.year&#45;&gt;medicare._enrollments.year</title>
<path fill="none" stroke="blue" stroke-width="5" d="M557.75,-145.65C557.75,-139.13 557.75,-132.17 557.75,-125.48"/>
<polygon fill="blue" stroke="blue" stroke-width="5" points="562.13,-125.65 557.75,-115.65 553.38,-125.65 562.13,-125.65"/>
<text text-anchor="middle" x="672.12" y="-122.45" font-family="Times,serif" font-size="14.00">	 &#160;Aggregated On bene_id, year, state</text>
</g>
<!-- medicare.ps.year -->
<g id="node4" class="node">
<title>medicare.ps.year</title>
<g id="a_node4"><a xlink:href="../medicare.ps/year.html" xlink:title="&lt;TABLE&gt;" target="_blank">
<polygon fill="none" stroke="black" points="1115.5,-301 0,-301 0,-242 1115.5,-242 1115.5,-301"/>
<text text-anchor="start" x="507.88" y="-279.7" font-family="Times,serif" font-weight="bold" font-size="14.00">medicare.ps.year</text>
<polygon fill="none" stroke="black" points="11,-249 11,-271.5 1104.5,-271.5 1104.5,-249 11,-249"/>
<text text-anchor="start" x="14" y="-255.2" font-family="Times,serif" font-size="14.00">(CASE WHEN &quot;year&quot;::int &lt; 20 THEN (2000 + &quot;year&quot;::int) WHEN (20 &lt; &quot;year&quot;::int AND &quot;year&quot;::int &lt; 100) THEN (1900 + &quot;year&quot;::int) WHEN &quot;year&quot; IS NULL THEN 2000 ELSE &quot;year&quot;::int END)</text>
<polygon fill="none" stroke="black" points="8,-246 8,-297 1107.5,-297 1107.5,-246 8,-246"/>
</a>
</g>
</g>
<!-- medicare.ps.year&#45;&gt;medicare._ps.year -->
<g id="edge3" class="edge">
<title>medicare.ps.year&#45;&gt;medicare._ps.year</title>
<path fill="none" stroke="black" d="M557.75,-241.53C557.75,-233.68 557.75,-225.05 557.75,-216.7"/>
<polygon fill="black" stroke="black" points="561.25,-216.73 557.75,-206.73 554.25,-216.73 561.25,-216.73"/>
<text text-anchor="middle" x="577.25" y="-218.45" font-family="Times,serif" font-size="14.00">Copied</text>
</g>
<!-- medicare.ps.year_parent -->
<g id="node5" class="node">
<title>medicare.ps.year_parent</title>
<g id="a_node5"><a xlink:href="../medicare.ps/year.html" xlink:title="8 incoming links (columns)" target="_blank">
<path fill="yellow" stroke="black" d="M665.75,-436.18C665.75,-441.6 617.34,-446 557.75,-446 498.16,-446 449.75,-441.6 449.75,-436.18 449.75,-436.18 449.75,-347.82 449.75,-347.82 449.75,-342.4 498.16,-338 557.75,-338 617.34,-338 665.75,-342.4 665.75,-347.82 665.75,-347.82 665.75,-436.18 665.75,-436.18"/>
<path fill="none" stroke="black" d="M665.75,-436.18C665.75,-430.76 617.34,-426.36 557.75,-426.36 498.16,-426.36 449.75,-430.76 449.75,-436.18"/>
<text text-anchor="middle" x="557.75" y="-386.95" font-family="Times,serif" font-size="14.00">8 incoming links (columns)</text>
</a>
</g>
</g>
<!-- medicare.ps.year_parent&#45;&gt;medicare.ps.year -->
<g id="edge4" class="edge">
<title>medicare.ps.year_parent&#45;&gt;medicare.ps.year</title>
<path fill="none" stroke="goldenrod" stroke-width="6" d="M557.75,-337.64C557.75,-330.89 557.75,-324.03 557.75,-317.42"/>
<polygon fill="goldenrod" stroke="goldenrod" stroke-width="6" points="563,-317.71 557.75,-307.71 552.5,-317.71 563,-317.71"/>
</g>
</g>
</svg>
