<?xml version="1.0" encoding="UTF-8" standalone="no"?>
<!DOCTYPE svg PUBLIC "-//W3C//DTD SVG 1.1//EN"
 "http://www.w3.org/Graphics/SVG/1.1/DTD/svg11.dtd">
<!-- Generated by graphviz version 10.0.1 (20240210.2158)
 -->
<!-- Pages: 1 -->
<svg width="461pt" height="465pt"
 viewBox="0.00 0.00 461.25 464.50" xmlns="http://www.w3.org/2000/svg" xmlns:xlink="http://www.w3.org/1999/xlink">
<g id="graph0" class="graph" transform="scale(1 1) rotate(0) translate(4 460.5)">
<polygon fill="white" stroke="none" points="-4,4 -4,-460.5 457.25,-460.5 457.25,4 -4,4"/>
<!-- medicare._beneficiaries.yob -->
<g id="node1" class="node">
<title>medicare._beneficiaries.yob</title>
<g id="a_node1"><a xlink:href="../medicare._beneficiaries/yob.html" xlink:title="&lt;TABLE&gt;" target="_blank">
<polygon fill="none" stroke="black" points="320.62,-59 132.62,-59 132.62,0 320.62,0 320.62,-59"/>
<text text-anchor="start" x="145.62" y="-37.7" font-family="Times,serif" font-weight="bold" font-size="14.00">medicare._beneficiaries.yob</text>
<polygon fill="none" stroke="black" points="143.62,-7 143.62,-29.5 309.62,-29.5 309.62,-7 143.62,-7"/>
<text text-anchor="start" x="146.62" y="-13.2" font-family="Times,serif" font-size="14.00">MIN(yob)</text>
<polygon fill="none" stroke="black" points="140.62,-4 140.62,-55 312.62,-55 312.62,-4 140.62,-4"/>
</a>
</g>
</g>
<!-- medicare._ps.yob -->
<g id="node2" class="node">
<title>medicare._ps.yob</title>
<g id="a_node2"><a xlink:href="../medicare._ps/yob.html" xlink:title="&lt;TABLE&gt;" target="_blank">
<polygon fill="none" stroke="black" points="453.25,-155 0,-155 0,-96 453.25,-96 453.25,-155"/>
<text text-anchor="start" x="175.62" y="-133.7" font-family="Times,serif" font-weight="bold" font-size="14.00">medicare._ps.yob</text>
<polygon fill="none" stroke="black" points="11,-103 11,-125.5 442.25,-125.5 442.25,-103 11,-103"/>
<text text-anchor="start" x="14" y="-109.2" font-family="Times,serif" font-size="14.00">CASE WHEN age is not NULL THEN (year &#45; age) ELSE NULL END as yob</text>
<polygon fill="none" stroke="black" points="8,-100 8,-151 445.25,-151 445.25,-100 8,-100"/>
</a>
</g>
</g>
<!-- medicare._ps.yob&#45;&gt;medicare._beneficiaries.yob -->
<g id="edge1" class="edge">
<title>medicare._ps.yob&#45;&gt;medicare._beneficiaries.yob</title>
<path fill="none" stroke="blue" stroke-width="5" d="M226.62,-95.53C226.62,-89.13 226.62,-82.2 226.62,-75.33"/>
<polygon fill="blue" stroke="blue" stroke-width="5" points="231,-75.45 226.63,-65.45 222.25,-75.45 231,-75.45"/>
<text text-anchor="middle" x="309.88" y="-72.45" font-family="Times,serif" font-size="14.00">	 &#160;Aggregated On bene_id</text>
</g>
<!-- medicare.ps.age -->
<g id="node3" class="node">
<title>medicare.ps.age</title>
<g id="a_node3"><a xlink:href="../medicare.ps/age.html" xlink:title="&lt;TABLE&gt;" target="_blank">
<polygon fill="none" stroke="black" points="360.88,-311.5 92.38,-311.5 92.38,-192 360.88,-192 360.88,-311.5"/>
<text text-anchor="start" x="179.75" y="-290.2" font-family="Times,serif" font-weight="bold" font-size="14.00">medicare.ps.age</text>
<text text-anchor="start" x="128.38" y="-243.7" font-family="Times,serif" font-size="14.00">Age on January 1 of a given year, if</text>
<text text-anchor="start" x="202.62" y="-227.2" font-family="Times,serif" font-size="14.00">provided</text>
<polygon fill="none" stroke="black" points="100.38,-196 100.38,-307.5 352.88,-307.5 352.88,-196 100.38,-196"/>
</a>
</g>
</g>
<!-- medicare.ps.age&#45;&gt;medicare._ps.yob -->
<g id="edge2" class="edge">
<title>medicare.ps.age&#45;&gt;medicare._ps.yob</title>
<path fill="none" stroke="black" d="M226.62,-191.54C226.62,-183.05 226.62,-174.5 226.62,-166.5"/>
<polygon fill="black" stroke="black" points="230.13,-166.78 226.63,-156.78 223.13,-166.78 230.13,-166.78"/>
<text text-anchor="middle" x="265.25" y="-168.45" font-family="Times,serif" font-size="14.00"> &#160;Transformed</text>
</g>
<!-- medicare.ps.age_parent -->
<g id="node4" class="node">
<title>medicare.ps.age_parent</title>
<g id="a_node4"><a xlink:href="../medicare.ps/age.html" xlink:title="8 incoming links (columns)" target="_blank">
<path fill="yellow" stroke="black" d="M334.62,-446.68C334.62,-452.1 286.22,-456.5 226.62,-456.5 167.03,-456.5 118.62,-452.1 118.62,-446.68 118.62,-446.68 118.62,-358.32 118.62,-358.32 118.62,-352.9 167.03,-348.5 226.62,-348.5 286.22,-348.5 334.62,-352.9 334.62,-358.32 334.62,-358.32 334.62,-446.68 334.62,-446.68"/>
<path fill="none" stroke="black" d="M334.62,-446.68C334.62,-441.26 286.22,-436.86 226.62,-436.86 167.03,-436.86 118.62,-441.26 118.62,-446.68"/>
<text text-anchor="middle" x="226.62" y="-397.45" font-family="Times,serif" font-size="14.00">8 incoming links (columns)</text>
</a>
</g>
</g>
<!-- medicare.ps.age_parent&#45;&gt;medicare.ps.age -->
<g id="edge3" class="edge">
<title>medicare.ps.age_parent&#45;&gt;medicare.ps.age</title>
<path fill="none" stroke="goldenrod" stroke-width="6" d="M226.62,-348.22C226.62,-341.7 226.62,-334.94 226.62,-328.18"/>
<polygon fill="goldenrod" stroke="goldenrod" stroke-width="6" points="231.88,-328.42 226.63,-318.42 221.38,-328.42 231.88,-328.42"/>
</g>
</g>
</svg>
