<?xml version="1.0" encoding="UTF-8" standalone="no"?>
<!DOCTYPE svg PUBLIC "-//W3C//DTD SVG 1.1//EN"
 "http://www.w3.org/Graphics/SVG/1.1/DTD/svg11.dtd">
<!-- Generated by graphviz version 10.0.1 (20240210.2158)
 -->
<!-- Pages: 1 -->
<svg width="921pt" height="668pt"
 viewBox="0.00 0.00 921.00 668.00" xmlns="http://www.w3.org/2000/svg" xmlns:xlink="http://www.w3.org/1999/xlink">
<g id="graph0" class="graph" transform="scale(1 1) rotate(0) translate(4 664)">
<polygon fill="white" stroke="none" points="-4,4 -4,-664 917,-664 917,4 -4,4"/>
<!-- medicare._enrollments.zip -->
<g id="node1" class="node">
<title>medicare._enrollments.zip</title>
<g id="a_node1"><a xlink:href="../medicare._enrollments/zip.html" xlink:title="&lt;TABLE&gt;" target="_blank">
<polygon fill="none" stroke="black" points="546.75,-59 366.25,-59 366.25,0 546.75,0 546.75,-59"/>
<text text-anchor="start" x="379.25" y="-37.7" font-family="Times,serif" font-weight="bold" font-size="14.00">medicare._enrollments.zip</text>
<polygon fill="none" stroke="black" points="377.25,-7 377.25,-29.5 535.75,-29.5 535.75,-7 377.25,-7"/>
<text text-anchor="start" x="380.25" y="-13.2" font-family="Times,serif" font-size="14.00">MAX(zip)</text>
<polygon fill="none" stroke="black" points="374.25,-4 374.25,-55 538.75,-55 538.75,-4 374.25,-4"/>
</a>
</g>
</g>
<!-- medicare._ps.zip -->
<g id="node2" class="node">
<title>medicare._ps.zip</title>
<g id="a_node2"><a xlink:href="../medicare._ps/zip.html" xlink:title="&lt;TABLE&gt;" target="_blank">
<polygon fill="none" stroke="black" points="913,-287 0,-287 0,-96 913,-96 913,-287"/>
<text text-anchor="start" x="86.88" y="-265.7" font-family="Times,serif" font-weight="bold" font-size="14.00">medicare._ps.zip</text>
<text text-anchor="start" x="35.88" y="-219.7" font-family="Times,serif" font-size="14.00">US Postal ZIP code, the first 5 digits</text>
<text text-anchor="start" x="124.75" y="-203.2" font-family="Times,serif" font-size="14.00">of it</text>
<polygon fill="none" stroke="black" points="11,-151 11,-173 261,-173 261,-151 11,-151"/>
<text text-anchor="start" x="14" y="-156.7" font-family="Times,serif" font-size="14.00">numeric →</text>
<polygon fill="none" stroke="black" points="263,-151 263,-173 902,-173 902,-151 263,-151"/>
<text text-anchor="start" x="266" y="-156.7" font-family="Times,serif" font-size="14.00">(CASE WHEN {column_name} &lt; 100000 THEN {column_name}::int ELSE ({column_name}/10000)::INT END)</text>
<polygon fill="none" stroke="black" points="11,-127 11,-149 261,-149 261,-127 11,-127"/>
<text text-anchor="start" x="14" y="-132.7" font-family="Times,serif" font-size="14.00">character varying →</text>
<polygon fill="none" stroke="black" points="263,-127 263,-149 902,-149 902,-127 263,-127"/>
<text text-anchor="start" x="266" y="-132.7" font-family="Times,serif" font-size="14.00">SUBSTRING({column_name} FROM 1 FOR 5)::INT</text>
<polygon fill="none" stroke="black" points="11,-103 11,-125 261,-125 261,-103 11,-103"/>
<text text-anchor="start" x="14" y="-108.7" font-family="Times,serif" font-size="14.00">integer →</text>
<polygon fill="none" stroke="black" points="263,-103 263,-125 902,-125 902,-103 263,-103"/>
<text text-anchor="start" x="266" y="-108.7" font-family="Times,serif" font-size="14.00">{column_name}::INT</text>
<polygon fill="none" stroke="black" points="8,-100 8,-283 905,-283 905,-100 8,-100"/>
</a>
</g>
</g>
<!-- medicare._ps.zip&#45;&gt;medicare._enrollments.zip -->
<g id="edge1" class="edge">
<title>medicare._ps.zip&#45;&gt;medicare._enrollments.zip</title>
<path fill="none" stroke="blue" stroke-width="5" d="M456.5,-95.58C456.5,-88.57 456.5,-81.72 456.5,-75.26"/>
<polygon fill="blue" stroke="blue" stroke-width="5" points="460.88,-75.43 456.5,-65.43 452.13,-75.43 460.88,-75.43"/>
<text text-anchor="middle" x="570.88" y="-72.45" font-family="Times,serif" font-size="14.00">	 &#160;Aggregated On bene_id, year, state</text>
</g>
<!-- medicare.ps.zip -->
<g id="node3" class="node">
<title>medicare.ps.zip</title>
<g id="a_node3"><a xlink:href="../medicare.ps/zip.html" xlink:title="&lt;TABLE&gt;" target="_blank">
<polygon fill="none" stroke="black" points="913,-515 0,-515 0,-324 913,-324 913,-515"/>
<text text-anchor="start" x="90.25" y="-493.7" font-family="Times,serif" font-weight="bold" font-size="14.00">medicare.ps.zip</text>
<text text-anchor="start" x="35.88" y="-447.7" font-family="Times,serif" font-size="14.00">US Postal ZIP code, the first 5 digits</text>
<text text-anchor="start" x="124.75" y="-431.2" font-family="Times,serif" font-size="14.00">of it</text>
<polygon fill="none" stroke="black" points="11,-379 11,-401 261,-401 261,-379 11,-379"/>
<text text-anchor="start" x="14" y="-384.7" font-family="Times,serif" font-size="14.00">numeric →</text>
<polygon fill="none" stroke="black" points="263,-379 263,-401 902,-401 902,-379 263,-379"/>
<text text-anchor="start" x="266" y="-384.7" font-family="Times,serif" font-size="14.00">(CASE WHEN {column_name} &lt; 100000 THEN {column_name}::int ELSE ({column_name}/10000)::INT END)</text>
<polygon fill="none" stroke="black" points="11,-355 11,-377 261,-377 261,-355 11,-355"/>
<text text-anchor="start" x="14" y="-360.7" font-family="Times,serif" font-size="14.00">character varying →</text>
<polygon fill="none" stroke="black" points="263,-355 263,-377 902,-377 902,-355 263,-355"/>
<text text-anchor="start" x="266" y="-360.7" font-family="Times,serif" font-size="14.00">SUBSTRING({column_name} FROM 1 FOR 5)::INT</text>
<polygon fill="none" stroke="black" points="11,-331 11,-353 261,-353 261,-331 11,-331"/>
<text text-anchor="start" x="14" y="-336.7" font-family="Times,serif" font-size="14.00">integer →</text>
<polygon fill="none" stroke="black" points="263,-331 263,-353 902,-353 902,-331 263,-331"/>
<text text-anchor="start" x="266" y="-336.7" font-family="Times,serif" font-size="14.00">{column_name}::INT</text>
<polygon fill="none" stroke="black" points="8,-328 8,-511 905,-511 905,-328 8,-328"/>
</a>
</g>
</g>
<!-- medicare.ps.zip&#45;&gt;medicare._ps.zip -->
<g id="edge2" class="edge">
<title>medicare.ps.zip&#45;&gt;medicare._ps.zip</title>
<path fill="none" stroke="black" d="M456.5,-323.64C456.5,-315.42 456.5,-307.06 456.5,-298.76"/>
<polygon fill="black" stroke="black" points="460,-299 456.5,-289 453,-299 460,-299"/>
<text text-anchor="middle" x="476" y="-300.45" font-family="Times,serif" font-size="14.00">Copied</text>
</g>
<!-- medicare.ps.zip_parent -->
<g id="node4" class="node">
<title>medicare.ps.zip_parent</title>
<g id="a_node4"><a xlink:href="../medicare.ps/zip.html" xlink:title="8 incoming links (columns)" target="_blank">
<path fill="yellow" stroke="black" d="M564.5,-650.18C564.5,-655.6 516.09,-660 456.5,-660 396.91,-660 348.5,-655.6 348.5,-650.18 348.5,-650.18 348.5,-561.82 348.5,-561.82 348.5,-556.4 396.91,-552 456.5,-552 516.09,-552 564.5,-556.4 564.5,-561.82 564.5,-561.82 564.5,-650.18 564.5,-650.18"/>
<path fill="none" stroke="black" d="M564.5,-650.18C564.5,-644.76 516.09,-640.36 456.5,-640.36 396.91,-640.36 348.5,-644.76 348.5,-650.18"/>
<text text-anchor="middle" x="456.5" y="-600.95" font-family="Times,serif" font-size="14.00">8 incoming links (columns)</text>
</a>
</g>
</g>
<!-- medicare.ps.zip_parent&#45;&gt;medicare.ps.zip -->
<g id="edge3" class="edge">
<title>medicare.ps.zip_parent&#45;&gt;medicare.ps.zip</title>
<path fill="none" stroke="goldenrod" stroke-width="6" d="M456.5,-551.63C456.5,-545.23 456.5,-538.52 456.5,-531.66"/>
<polygon fill="goldenrod" stroke="goldenrod" stroke-width="6" points="461.75,-531.93 456.5,-521.93 451.25,-531.93 461.75,-531.93"/>
</g>
</g>
</svg>
